<?xml version="1.0" standalone="no"?>
<!DOCTYPE svg PUBLIC "-//W3C//DTD SVG 20010904//EN"
 "http://www.w3.org/TR/2001/REC-SVG-20010904/DTD/svg10.dtd">
<svg version="1.0" xmlns="http://www.w3.org/2000/svg"
 width="434.000000pt" height="434.000000pt" viewBox="0 0 434.000000 434.000000"
 preserveAspectRatio="xMidYMid meet">
<metadata>
Created by potrace 1.11, written by Peter Selinger 2001-2013
</metadata>
<g transform="translate(0.000000,434.000000) scale(0.100000,-0.100000)"
fill="#000000" stroke="none">
<path d="M2131 4312 c-62 -68 -173 -244 -219 -352 -79 -182 -34 -440 111 -644
56 -79 76 -84 39 -10 -94 186 -103 398 -25 589 39 96 102 195 124 195 30 0 92
-106 139 -237 37 -105 41 -127 41 -207 -1 -145 -33 -273 -89 -359 -37 -55 -21
-55 28 0 80 91 150 239 166 350 17 116 0 260 -43 352 -44 93 -185 306 -226
340 -15 12 -20 9 -46 -17z"/>
<path d="M841 3791 c-21 -13 -7 -137 31 -286 65 -255 215 -419 465 -508 45
-16 92 -24 138 -25 l70 -1 -52 19 c-210 76 -368 228 -442 426 -27 69 -51 188
-42 202 7 12 92 0 165 -24 59 -19 156 -67 200 -98 96 -67 197 -193 233 -289 9
-25 25 -56 35 -69 19 -23 19 -23 13 37 -11 114 -45 202 -116 306 -75 111 -167
187 -280 232 -144 57 -380 101 -418 78z"/>
<path d="M3458 3796 c-1 -2 -31 -7 -65 -10 -105 -11 -300 -65 -373 -103 -190
-100 -341 -322 -349 -514 -1 -35 0 -62 3 -59 3 3 19 39 37 80 83 198 230 327
452 401 95 31 146 37 148 17 11 -96 -65 -298 -150 -401 -83 -100 -192 -173
-324 -218 -95 -31 -82 -40 34 -23 222 33 410 160 507 342 53 100 123 388 113
468 -1 12 -26 26 -33 20z"/>
<path d="M916 2995 c-13 -34 -6 -287 9 -349 56 -223 114 -297 576 -738 215
-207 276 -288 328 -443 40 -121 58 -294 40 -404 -4 -25 -10 -75 -14 -111 -3
-36 -8 -72 -10 -80 -2 -8 -6 -44 -9 -80 -3 -36 -9 -94 -13 -130 -19 -160 1
-383 49 -540 28 -94 41 -120 59 -120 22 0 316 301 366 375 75 112 129 237 159
370 16 69 8 339 -12 422 -16 67 -124 256 -204 358 -26 34 -52 70 -58 80 -13
25 -253 264 -278 278 -11 5 -32 22 -49 37 -58 54 -205 159 -350 250 -201 128
-295 212 -392 355 -81 119 -149 279 -168 395 -16 95 -18 102 -29 75z"/>
<path d="M3389 2953 c-3 -54 -9 -77 -47 -172 -23 -58 -68 -150 -99 -205 -90
-158 -247 -305 -450 -422 -18 -10 -33 -21 -33 -25 0 -4 -11 -10 -25 -13 -13
-3 -54 -29 -90 -56 -36 -28 -79 -57 -95 -65 -28 -15 -187 -145 -247 -204 -18
-17 -33 -37 -33 -44 0 -19 31 -71 81 -134 25 -32 58 -80 73 -108 16 -27 32
-55 38 -62 13 -16 36 -6 44 20 12 40 72 156 110 212 44 66 201 229 339 351
211 186 371 375 400 474 4 14 17 45 29 70 18 39 21 67 24 223 3 122 0 177 -7
177 -6 0 -11 -8 -12 -17z"/>
<path d="M2099 2634 c-59 -18 -124 -80 -156 -150 -48 -104 -30 -257 41 -350
93 -124 230 -131 343 -19 40 40 55 66 68 109 18 62 22 136 10 204 -7 43 -61
132 -99 164 -58 48 -135 64 -207 42z"/>
</g>
</svg>
