<svg xmlns="http://www.w3.org/2000/svg" viewBox="0 0 592.8 178.19">
    <defs>
        <style>.cls-1{fill:#fff;}.cls-2{fill:#3f3f3f;}.cls-3{fill:#c7c7c7;}.cls-4{fill:#484848;}.cls-5{fill:#969696;}.cls-6{fill:#b8b8b8;}.cls-7{fill:#b2b2b2;}.cls-8{fill:#838383;}.cls-9{fill:#afafaf;}.cls-10{fill:#dcdcdc;}.cls-11{fill:#727272;}.cls-12{fill:#707070;}.cls-13{fill:#0679cc;}.cls-14{fill:#010101;}.cls-15{fill:#acde63;}.cls-16{fill:#040404;}.cls-17{fill:#161616;}.cls-18{fill:#181819;}.cls-19{fill:#232323;}.cls-20{fill:#146ebe;}.cls-21{fill:#1f1f21;}.cls-22{fill:#e0e0e0;}.cls-23{fill:#1f1f20;}.cls-24{fill:#328cd3;}.cls-25{fill:#c1e490;}.cls-26{fill:#d4ebb3;}.cls-27{fill:#cde9a5;}.cls-28{fill:#e1f1cb;}.cls-29{fill:#646464;}.cls-30{fill:#686868;}.cls-31{fill:#606060;}.cls-32{fill:#9dc874;}.cls-33{fill:#bbb;}.cls-34{fill:#c7e797;}.cls-35{fill:#6f6f6f;}.cls-36{fill:#9ac66f;}.cls-37{fill:silver;}.cls-38{fill:#bdbdbd;}.cls-39{fill:#898989;}</style>
    </defs>
    <title>Logo KaK</title>
    <g id="Ebene_2" data-name="Ebene 2">
        <g id="KaK_Logo_Bild" data-name="KaK Logo Bild">
            <path d="M0,111.23c1.63-.35,3.26-.72,4.9-1a16.55,16.55,0,0,1,4.76-.38,2.76,2.76,0,0,1,2.8,2.72,19.26,19.26,0,0,1,.18,2.63c-.05,3.15-.16,6.31-.25,9.47l-.45,15c-.17,5.55-.33,11.1-.51,16.65,0,1,.09,1.07-1,1.17s-2.3.27-3.45.43c-.57.09-.78-.07-.75-.69.11-2,.18-4,.24-6,.24-7.27.51-14.54.69-21.81.11-4.11.08-8.23.11-12.35,0-.68,0-1.36-.08-2A2.31,2.31,0,0,0,5,112.66a9.93,9.93,0,0,0-3.22.06c-.81.11-1.43,0-1.79-.77Z" />
            <path class="cls-1" d="M592.8,134v13.44a.27.27,0,0,1-.34,0c-1.57-3-4.36-4.53-7.29-5.9a34.52,34.52,0,0,1-5.9-3.17,4.78,4.78,0,0,1-2.37-3.56A4.56,4.56,0,0,1,580,130a8.76,8.76,0,0,1,5.28-.45c2.42.53,3.54,2.14,3.25,4.66-.14,1.19-.1,1.17,1,1.24a3.82,3.82,0,0,0,2.91-1.42A.32.32,0,0,1,592.8,134Z" />
            <path class="cls-2" d="M592.8,148.67v1.92a.25.25,0,0,1-.35-.07,2,2,0,0,1,0-1.78A.24.24,0,0,1,592.8,148.67Z" />
            <path class="cls-3" d="M487.67,177.92v.27h-1.44a.24.24,0,0,1,.07-.35A1.19,1.19,0,0,1,487.67,177.92Z" />
            <path class="cls-4" d="M592.8,132.11v1.2a.24.24,0,0,1-.34,0,1.06,1.06,0,0,1,0-1.11A.23.23,0,0,1,592.8,132.11Z" />
            <path class="cls-5" d="M486.25,178a1.21,1.21,0,0,1,0,.19H485v-.25A.8.8,0,0,1,486.25,178Z" />
            <path class="cls-6" d="M592.58,147.46h.22v.72a.23.23,0,0,1-.33,0A.53.53,0,0,1,592.58,147.46Z" />
            <path class="cls-7" d="M592.59,133.34l.21,0V134h-.23A.44.44,0,0,1,592.59,133.34Z" />
            <path class="cls-7" d="M592.59,131.14a.18.18,0,0,1,.21,0v.48a.21.21,0,0,1-.3,0A.36.36,0,0,1,592.59,131.14Z" />
            <path class="cls-8" d="M592.58,150.61a.82.82,0,0,1,.22,0v.48a.21.21,0,0,1-.29,0A.36.36,0,0,1,592.58,150.61Z" />
            <path class="cls-9" d="M592.59,151.08h.21v.48a.22.22,0,0,1-.3,0A.37.37,0,0,1,592.59,151.08Z" />
            <path class="cls-10" d="M592.59,151.56a.5.5,0,0,0,.21,0V152h-.23A.32.32,0,0,1,592.59,151.56Z" />
            <path class="cls-11" d="M592.59,131.62h.21v.48l-.19,0A.29.29,0,0,1,592.59,131.62Z" />
            <path class="cls-12" d="M592.6,148.17l.2,0v.48h-.22A.32.32,0,0,1,592.6,148.17Z" />
            <path class="cls-13" d="M85.69,33.94A29.45,29.45,0,0,0,87.6,40.7a28,28,0,0,0,8.6,11c1.54,1.15,3.2,2.09,4.81,3.1a81.47,81.47,0,0,1,8.21,6,3.35,3.35,0,0,1,.47.52q3.7,3.78,7.49,7.46a41.65,41.65,0,0,1,6,9.61,7.31,7.31,0,0,1,.53,2.44c.08,1.75.42,3.46.42,5.23a22.47,22.47,0,0,1-1.28,6.91,24,24,0,0,1-5.77,9.26c-1.79,1.88-3.66,3.69-5.49,5.52a3.39,3.39,0,0,1-.44.41c-.57.44-.77.41-1.06-.28a24.46,24.46,0,0,1-1.63-5.62c-.15-.94-.28-1.89-.44-2.84a25.54,25.54,0,0,1,0-7.51c.23-1.7.25-3.43.51-5.12.22-1.42.29-2.85.56-4.27a23.71,23.71,0,0,0,.2-4.54,22,22,0,0,0-1.66-7.68,16.94,16.94,0,0,0-2.07-3.63,37,37,0,0,0-4.45-5c-3-3-6.3-5.65-9.26-8.69a35.4,35.4,0,0,1-4.06-5.17,16.7,16.7,0,0,1-2.29-6.37c-.26-2.37-.06-4.74-.11-7.1C85.33,34.05,85.44,33.92,85.69,33.94Z" />
            <path d="M231.88,144.13a59.32,59.32,0,0,1,3.28-8.45,24.79,24.79,0,0,1,3.46-5.3,9.4,9.4,0,0,1,3.65-2.65,4.94,4.94,0,0,1,6.8,2.83,9.38,9.38,0,0,1,.75,3.13,57.82,57.82,0,0,1-.37,7.89c-.25,3.47-.76,6.92-.39,10.41a5.87,5.87,0,0,0,.08.72,2.34,2.34,0,0,0,2.9,2.15,12,12,0,0,0,3.48-.83c.23-.1.55-.44.8.05a.66.66,0,0,1-.24,1,22.92,22.92,0,0,1-5.16,2.48,12.19,12.19,0,0,1-2.8.62,2.57,2.57,0,0,1-3-1.81,10,10,0,0,1-.58-3.16,88.15,88.15,0,0,1,.39-10.78,39.87,39.87,0,0,0,.34-6.82,4.74,4.74,0,0,0-.54-2,2.62,2.62,0,0,0-3.68-1.13,7.42,7.42,0,0,0-2.41,2.12,30.93,30.93,0,0,0-4.74,9.09,49,49,0,0,0-2.79,12.83c0,.53-.17.76-.74.81-1,.08-2.06.26-3.09.41-.54.08-.81-.05-.77-.68.15-2.19.24-4.39.37-6.59.24-4.35.6-8.69.69-13.05a8.24,8.24,0,0,0-.35-3,2.68,2.68,0,0,0-4.38-1.45,11,11,0,0,0-3.12,3.44A39.67,39.67,0,0,0,215,147.73a41,41,0,0,0-1.47,8.72c0,.65-.24.9-.9,1-1.21.1-2.42.39-3.72.4.12-2.24.25-4.38.36-6.53.15-2.87.3-5.75.43-8.62.13-3.08.29-6.15.24-9.24,0-2.57-.9-3.28-3.44-2.81-.67.13-1.35.22-2,.41s-.81.21-1-.41.05-.88.61-1c1.42-.41,2.82-.87,4.24-1.28a14,14,0,0,1,3.39-.71c1.78-.06,2.65.75,2.74,2.56a56.2,56.2,0,0,1-.31,6.22c-.14,2.35-.43,4.69-.65,7-.1.56-.29,1.13.11,1.65a.52.52,0,0,1,.17-.19h0c.2-.2,0-.55.27-.71a60.3,60.3,0,0,1,3.31-8.42,21.14,21.14,0,0,1,4.26-6,7.67,7.67,0,0,1,4.55-2.17,4.29,4.29,0,0,1,4.3,2.24,8.82,8.82,0,0,1,1.26,4.08,50.88,50.88,0,0,1-.46,9.79,1.48,1.48,0,0,0,.09,1.37A8.86,8.86,0,0,1,231.88,144.13Z" />
            <path d="M134.34,146A41.07,41.07,0,0,1,140.92,133a16.51,16.51,0,0,1,5.78-4.94,8,8,0,0,1,3.59-.79,4.68,4.68,0,0,1,4.62,5.58,10.3,10.3,0,0,1-3.06,5.84,24.19,24.19,0,0,1-6.18,4.48l-.64.33c-.38.17-.41.45-.23.78.28.53.57,1.06.87,1.58a54.49,54.49,0,0,0,3.8,6,16.32,16.32,0,0,0,1.53,1.69,4.73,4.73,0,0,0,4.51,1.31,12.55,12.55,0,0,0,2.74-.83c.25-.1.53-.26.72.11s.22.69-.18.94c-.13.08-.26.18-.4.26a21.08,21.08,0,0,1-7.18,2.84,4,4,0,0,1-3.45-.94,12.18,12.18,0,0,1-1.95-2.11,95.52,95.52,0,0,1-6.21-10.38c-.33-.59-.07-.74.43-.91a27.81,27.81,0,0,0,5.42-2.52,13.29,13.29,0,0,0,4-3.42,5.9,5.9,0,0,0,1.13-2.73,2.76,2.76,0,0,0-3.29-3.19,6.69,6.69,0,0,0-2.73,1.16,16.76,16.76,0,0,0-4.43,5,42.2,42.2,0,0,0-4.77,11.46,50.53,50.53,0,0,0-1.45,7c-.07.54-.24.75-.79.81-1,.09-2,.29-3,.41-.75.09-.82,0-.78-.77.08-1.79.19-3.59.29-5.38.2-3.71.42-7.43.63-11.14q.45-8.37.91-16.76.28-5.44.55-10.89c.17-3.24.32-6.47.49-9.7a1.91,1.91,0,0,1,1.67-1.92,5.88,5.88,0,0,1,3.19.18.84.84,0,0,1,.67,1c-.22,1.87-.4,3.73-.6,5.6-.29,2.7-.58,5.4-.85,8.1q-.47,4.71-.9,9.42-.28,3.22-.52,6.45-.48,6.69-.95,13.39c0,.19,0,.4,0,.59C134.11,146.45,134.23,146.19,134.34,146Z" />
            <path d="M486.25,178l-1.2-.06c.4-5,.68-10,1-14.95.39-6.9.72-13.81.91-20.72.08-2.84.15-5.67.21-8.51a6.27,6.27,0,0,0-.16-1.67,1.81,1.81,0,0,0-1.89-1.63,13.33,13.33,0,0,0-3.33.36l-1.38.3c-.43-1.39-.44-1.4.87-1.78,2.11-.6,4.22-1.21,6.37-1.62a9.87,9.87,0,0,1,1.42-.19,2.27,2.27,0,0,1,2.67,2.37,32.53,32.53,0,0,1-.05,4.19c-.13,2.24-.27,4.47-.4,6.7-.06,1-.13,2-.19,3,.6.07.56-.42.67-.7a48.27,48.27,0,0,1,4.13-7.82,24,24,0,0,1,5.32-6,10.84,10.84,0,0,1,2.92-1.62,5.85,5.85,0,0,1,7,2.25,11.67,11.67,0,0,1,1.93,5,22.92,22.92,0,0,1-3.19,16.31,14.94,14.94,0,0,1-7.69,6.4c-4.06,1.45-7.85,1-11.19-1.9-.09-.07-.19-.12-.31-.2-.38.31-.26.74-.27,1.11-.13,3-.2,5.91-.35,8.87-.2,3.75-.23,7.51-.24,11.26,0,.9,0,.9-.92,1a3.35,3.35,0,0,0-1.18.18Z" />
            <path d="M382.32,141.71c-.67,1.88-1.23,3.8-2,5.63a29.56,29.56,0,0,1-4.15,7.26,10.76,10.76,0,0,1-3.75,3.11,6.47,6.47,0,0,1-4.55.45c-2.42-.64-3.5-2.47-4-4.74a16.07,16.07,0,0,1-.21-4.89c.21-3.19.5-6.38.79-9.56a51.79,51.79,0,0,0,.12-6.47c0-1.48-.73-2-2.24-2a11.94,11.94,0,0,0-1.89.26c-.63.09-1.25.28-1.87.42-.31-.07-.23-.37-.33-.57-.3-.62,0-.85.57-1a66.88,66.88,0,0,1,6.68-1.89c.15,0,.31,0,.47-.08,2.22-.28,3.15.4,3.37,2.63a21.16,21.16,0,0,1,0,3.47c-.24,3.31-.58,6.61-.83,9.91a50,50,0,0,0-.33,5.87,6.57,6.57,0,0,0,.22,1.53,3.25,3.25,0,0,0,4.83,2.28,7.38,7.38,0,0,0,2.5-2,20.1,20.1,0,0,0,2.89-4.67,49.08,49.08,0,0,0,4.24-15c.1-.87.22-1.75.24-2.62,0-.58.27-.85.88-.88,1-.07,2.06-.23,3.1-.34.76-.09.74-.09.68.63-.46,5.5-.83,11-.83,16.53a27.75,27.75,0,0,0,.69,6.42,9.57,9.57,0,0,0,.82,2.24,3.34,3.34,0,0,0,4.53,1.7,6.68,6.68,0,0,0,1.08-.51c.36-.21.6-.25.88.15s.07.63-.21.87a9.36,9.36,0,0,1-5.73,2.46,5.25,5.25,0,0,1-5.11-2.72c-.42-.73-.62-1.55-1-2.29a19.23,19.23,0,0,1-.45-7.05c.18-1.25.16-2.53.3-3.79,0-.41.07-.82.08-1.23,0-.16,0-.27,0-.11s0,0-.06.05A1.23,1.23,0,0,1,382.32,141.71Z" />
            <path d="M83,144.83c.73-1.94,1.35-3.92,2.21-5.81a33.72,33.72,0,0,1,4.41-7.51,12.3,12.3,0,0,1,4.09-3.46c4-1.93,7.75-.09,8.69,4.24a19.47,19.47,0,0,1,.15,5.6c-.29,4-.79,8-.84,12a15.45,15.45,0,0,0,.2,2.63c.27,1.74,1,2.57,3.16,2.37a11.79,11.79,0,0,0,3.35-.85c.23-.09.51-.35.69.08s.33.67-.12.92a3.15,3.15,0,0,0-.29.22,19.38,19.38,0,0,1-7.64,3,2.61,2.61,0,0,1-3.22-2,8.38,8.38,0,0,1-.46-2.33A79.49,79.49,0,0,1,97.8,142a46,46,0,0,0,.35-5.62,7,7,0,0,0-.29-1.89,3.18,3.18,0,0,0-4.77-2,11.13,11.13,0,0,0-3.6,3.46,35.7,35.7,0,0,0-5,10.3,39.86,39.86,0,0,0-2,10.19c0,.55-.14.86-.8.91-1.23.1-2.44.31-3.81.49,0-1,.06-1.91.13-2.81.34-4.34.52-8.69.68-13,.11-2.83.25-5.67.22-8.51,0-2.68-.86-3.39-3.46-2.9-.7.13-1.41.25-2.1.44-.42.12-.69.15-.8-.36s-.27-.84.36-1.05c1.75-.57,3.48-1.16,5.27-1.6a12.49,12.49,0,0,1,2.58-.48c1.77,0,2.65.76,2.73,2.56,0,.6,0,1.2,0,1.8-.26,4-.47,8-.94,11.94-.1.56-.29,1.13.11,1.65a.6.6,0,0,1,.16-.19h0C82.94,145.18,82.9,145,83,144.83Z" />
            <path d="M454.79,144.83c.79-2.09,1.46-4.22,2.4-6.25a32.73,32.73,0,0,1,4.3-7.16,12.09,12.09,0,0,1,4-3.37c4-1.93,7.76-.08,8.69,4.24a19.47,19.47,0,0,1,.15,5.6c-.29,4-.79,8-.84,12a15.45,15.45,0,0,0,.2,2.63c.28,1.74.95,2.57,3.16,2.37a12.13,12.13,0,0,0,3.35-.85c.23-.09.51-.34.69.09s.3.63-.12.92a19.94,19.94,0,0,1-3,1.68,16.26,16.26,0,0,1-4.9,1.49,2.62,2.62,0,0,1-3.22-2,8,8,0,0,1-.46-2.34,80.9,80.9,0,0,1,.39-11.85,43.83,43.83,0,0,0,.35-5.62,7.44,7.44,0,0,0-.29-1.88,3.19,3.19,0,0,0-4.78-2,11.12,11.12,0,0,0-3.59,3.47A36.76,36.76,0,0,0,456,147.21a38.42,38.42,0,0,0-1.74,9.39c0,.38-.05.7-.55.76-1.31.15-2.61.33-4.05.51,0-1,.06-1.9.13-2.8.34-4.34.52-8.69.68-13,.11-2.83.25-5.67.22-8.51,0-2.67-.86-3.39-3.46-2.9-.7.13-1.41.25-2.1.45-.42.11-.69.13-.8-.37s-.27-.84.36-1.05c1.78-.59,3.56-1.18,5.38-1.63a11.39,11.39,0,0,1,2.71-.46,2.23,2.23,0,0,1,2.46,2.21,14.17,14.17,0,0,1,0,2.16c-.26,4-.47,8-.94,11.94-.1.56-.29,1.13.11,1.65a.6.6,0,0,1,.16-.19h0C454.7,145.18,454.66,145,454.79,144.83Z" />
            <path d="M337.61,137.78a4.65,4.65,0,0,1-3.12.6,3.09,3.09,0,0,1-2.53-3.82,6.09,6.09,0,0,1,1.7-3.11,14.61,14.61,0,0,1,6.67-3.6,12.94,12.94,0,0,1,6.39-.31,6.32,6.32,0,0,1,5.32,5.58,14.84,14.84,0,0,1,.23,3.58c-.18,2.91-.43,5.81-.59,8.72a27.82,27.82,0,0,0,.1,6.7,6,6,0,0,0,.25.92,3.8,3.8,0,0,0,4.88,2.5,7.78,7.78,0,0,0,1.78-.71c.27-.15.48-.2.71.1a.51.51,0,0,1-.09.81,8.26,8.26,0,0,1-7.85,2.16c-2.46-.6-4-2.72-4.2-5.51-.07-1.07,0-2.15,0-3.27-.55,0-.59.47-.74.74a22.39,22.39,0,0,1-4.5,5.87,10.13,10.13,0,0,1-4,2.34,6.25,6.25,0,0,1-8.16-6.52,8.34,8.34,0,0,1,3.71-6.65,18,18,0,0,1,7-2.9,33.4,33.4,0,0,1,6.06-.7c.51,0,.79-.1.84-.7.11-1.6.25-3.19.22-4.79a5.89,5.89,0,0,0-6-6.11,8.69,8.69,0,0,0-2.38.21c-2.66.64-3.46,2.59-3,5A7.88,7.88,0,0,0,337.61,137.78Z" />
            <path d="M183.06,137.76a4.44,4.44,0,0,1-3.31.59,3.08,3.08,0,0,1-2.36-3.73,6,6,0,0,1,1.67-3.12,14.52,14.52,0,0,1,6.65-3.64,13.17,13.17,0,0,1,6.51-.31,6.35,6.35,0,0,1,5.26,5.51,19.11,19.11,0,0,1,.21,4.53c-.17,2.64-.43,5.26-.58,7.89a26.75,26.75,0,0,0,.12,6.69,5,5,0,0,0,.68,1.78,3.69,3.69,0,0,0,4.38,1.61,12.89,12.89,0,0,0,1.78-.7c.32-.15.55-.24.8.12s.09.57-.16.8a8.77,8.77,0,0,1-5.74,2.37c-3.74.1-5.89-2.22-6.26-5.7a32.11,32.11,0,0,1,0-3.41c-.57.23-.65.65-.83,1a21.93,21.93,0,0,1-4.46,5.76,9.94,9.94,0,0,1-4,2.32,6.24,6.24,0,0,1-8.1-6.48,8.32,8.32,0,0,1,3.66-6.68,18,18,0,0,1,7-2.92,36.45,36.45,0,0,1,6.06-.72c.83,0,.81,0,.9-.87a38.42,38.42,0,0,0,.22-4.67,5.89,5.89,0,0,0-5.95-6.05,9.58,9.58,0,0,0-2.5.22c-2.57.64-3.39,2.54-3,4.92A7.38,7.38,0,0,0,183.06,137.76Z" />
            <path d="M525.05,137.78a4.6,4.6,0,0,1-3.23.58,3.09,3.09,0,0,1-2.42-3.8,6,6,0,0,1,1.62-3,14.4,14.4,0,0,1,6.74-3.69,12.94,12.94,0,0,1,6.39-.31,6.32,6.32,0,0,1,5.33,5.57,14.84,14.84,0,0,1,.23,3.58c-.18,2.91-.42,5.82-.59,8.73a27.74,27.74,0,0,0,.1,6.69,5.26,5.26,0,0,0,.29,1,3.78,3.78,0,0,0,4.72,2.44,6.85,6.85,0,0,0,1.89-.75.49.49,0,0,1,.78.2c.22.32.07.5-.15.7a8.22,8.22,0,0,1-8.3,2c-2.49-.87-3.49-2.92-3.74-5.38a32.11,32.11,0,0,1,0-3.26c-.55,0-.58.45-.74.72a22.44,22.44,0,0,1-4.5,5.88,10.12,10.12,0,0,1-4.1,2.37,6.25,6.25,0,0,1-8.06-6.42A8.39,8.39,0,0,1,521,144.9a19.25,19.25,0,0,1,8.2-3.13,30.77,30.77,0,0,1,4.88-.46c.63,0,.81-.22.85-.83.12-1.55.25-3.1.22-4.66a5.92,5.92,0,0,0-6.13-6.13,9.53,9.53,0,0,0-2.25.21c-2.68.66-3.47,2.6-3,5A8,8,0,0,0,525.05,137.78Z" />
            <path d="M307.5,109.48c.11,0,.47,0,.83.1a3,3,0,0,1,2.52,3.69,4.76,4.76,0,0,1-1.28,2.52c-.33.36-.62.43-1,0a4.07,4.07,0,0,0-1.76-1,4.86,4.86,0,0,0-3.49.39,14.63,14.63,0,0,0-3.67,2.67,58.85,58.85,0,0,0-7.09,8.27c-1.06,1.45-2.1,2.92-3.19,4.35a.91.91,0,0,0-.06,1.18c3.87,6.49,7.75,13,12.79,18.66a23.83,23.83,0,0,0,3.3,3.13,6.34,6.34,0,0,0,5.77,1.14c.3-.09.61-.16.92-.24.94-.25.93-.24,1.22.7.12.37.18.65-.3.84a34.94,34.94,0,0,1-6.7,2.17,6,6,0,0,1-4.82-1.25,29.56,29.56,0,0,1-5.56-5.94A170.27,170.27,0,0,1,285.06,134a1.2,1.2,0,0,1,.1-1.51c3.63-5,7-10.19,11-15a35.78,35.78,0,0,1,5.78-5.89A8.76,8.76,0,0,1,307.5,109.48Z" />
            <path d="M37.74,154.92a10.56,10.56,0,0,0,2.87-.59c.58-.19.79,0,.93.54s.44.86-.3,1.13a34.88,34.88,0,0,1-6.7,2.15A5.85,5.85,0,0,1,29.93,157a28.72,28.72,0,0,1-5.66-6A169.77,169.77,0,0,1,13.4,134a1.13,1.13,0,0,1,0-1.41c4.14-5.73,8-11.67,12.66-17a25.87,25.87,0,0,1,5.13-4.67,7.3,7.3,0,0,1,5.31-1.38,3,3,0,0,1,2.65,3.8,4.82,4.82,0,0,1-1.24,2.41c-.31.34-.58.46-1,.1-1.83-1.58-3.78-1.44-5.78-.35a16,16,0,0,0-3.05,2.3,44.82,44.82,0,0,0-5.07,5.6c-1.78,2.31-3.48,4.68-5.23,7a1.06,1.06,0,0,0-.11,1.38,136.55,136.55,0,0,0,11.24,16.83,30.86,30.86,0,0,0,4.5,4.64A6.8,6.8,0,0,0,37.74,154.92Z" />
            <path d="M323.72,103c-.35,3.2-.75,6.57-1.1,10q-.45,4.35-.8,8.71c-.32,4-.64,8-.87,12.07-.31,5.39-.48,10.79-.28,16.18a14.67,14.67,0,0,0,.38,3.09c.39,1.48,1.08,2,2.59,1.86A11.81,11.81,0,0,0,327,154c.27-.11.63-.47.89.12a.62.62,0,0,1-.26.9,18.78,18.78,0,0,1-7.94,3.14,2.43,2.43,0,0,1-2.84-1.86,11.35,11.35,0,0,1-.56-3.17c-.17-4.72-.09-9.43.16-14.15.23-4.31.36-8.63.57-12.94.18-3.59.41-7.18.62-10.77.19-3.43.38-6.87.58-10.3,0-.64.08-1.27.15-1.91a1.89,1.89,0,0,1,1.69-1.87,5.75,5.75,0,0,1,2.61,0C323.81,101.57,323.82,101.61,323.72,103Z" />
            <path d="M52.32,102.56c-.38,3.54-.74,6.79-1.07,10-.31,3.09-.63,6.19-.88,9.3-.32,3.94-.64,7.88-.86,11.83-.31,5.39-.48,10.79-.27,16.18a14,14,0,0,0,.37,3.09c.32,1.26.78,2,2.6,1.84a11.09,11.09,0,0,0,3.48-.85c.22-.09.5-.36.7.06s.32.67-.11.93-.86.59-1.32.84a18.82,18.82,0,0,1-6.36,2.33c-1.8.23-2.74-.35-3.26-2.06a11.18,11.18,0,0,1-.48-2.82c-.18-4.72-.11-9.43.14-14.15.23-4.23.37-8.47.58-12.7.19-3.75.42-7.5.63-11.25L46.78,105c0-.63.08-1.27.15-1.91a1.9,1.9,0,0,1,1.7-1.87,5.86,5.86,0,0,1,2.5,0C52.32,101.52,52.38,101.62,52.32,102.56Z" />
            <path d="M431.19,158.42c-4.47-.19-7.62-2.52-9.55-6.56a15.23,15.23,0,0,1-1.26-8.64,20,20,0,0,1,4.36-10.57,13.38,13.38,0,0,1,11.16-5.28,8.37,8.37,0,0,1,4.81,1.59,5.47,5.47,0,0,1,.92,8.12,11.7,11.7,0,0,1-5,3.17,39.55,39.55,0,0,1-8.73,2l-1.78.23c-1.12.12-1.15.12-1.09,1.27.16,3.18.91,6.16,3.13,8.59a7.5,7.5,0,0,0,8.62,2,11.85,11.85,0,0,0,4.36-2.89.67.67,0,0,1,1.11,0,.64.64,0,0,1,.09,1C439.53,156,436,158.36,431.19,158.42Z" />
            <path d="M283.72,134.68c-.21,7.46-.4,14.33-.58,21.2,0,1.37,0,1.39-1.4,1.6-1,.14-2,.26-3,.35s-.89,0-.87-.77c.06-1.88.15-3.75.21-5.63.22-6.27.49-12.54.63-18.81.13-5.47.13-11,.17-16.43a9.8,9.8,0,0,0-.08-1.43,2.29,2.29,0,0,0-2-2.08,12.85,12.85,0,0,0-4.06.1c-.68.07-.7-.27-.8-.71s-.1-.86.5-1a42,42,0,0,1,7.29-1.3c.4,0,.8,0,1.2,0,2.11.1,3,1,3.21,3.08a29.32,29.32,0,0,1,.09,4.19c-.16,4.84-.28,9.67-.42,14.5C283.82,132.79,283.75,134,283.72,134.68Z" />
            <path d="M405,158.37a14.61,14.61,0,0,1-6.28-1.29,7.47,7.47,0,0,1-2.54-1.77,4,4,0,0,1-.9-1.54,3.08,3.08,0,0,1,3.36-3.94c.27,0,.46.1.49.4,0,.12.06.23.08.35.44,2.63,2.5,4.8,6.05,5.28a7.34,7.34,0,0,0,4.55-.71,4.18,4.18,0,0,0,2.5-4,3.87,3.87,0,0,0-1.17-2.55,9.65,9.65,0,0,0-2.82-2c-1.36-.68-2.73-1.32-4.09-2a23.5,23.5,0,0,1-4.52-2.7c-4.12-3.27-4.09-8.9.18-12A13.63,13.63,0,0,1,412,127.86a6.41,6.41,0,0,1,3.53,2.35,3.69,3.69,0,0,1,.77,2.36c-.12,2.88-2.55,3.59-4.71,3-.36-.09-.35-.33-.23-.64a6,6,0,0,0,.31-1.27,3.06,3.06,0,0,0-1.55-3.25,7.49,7.49,0,0,0-8.37,1,3.93,3.93,0,0,0-.18,5.61,10.64,10.64,0,0,0,3.38,2.44c1.89,1,3.8,1.87,5.69,2.81a15.33,15.33,0,0,1,3.37,2.27,7.16,7.16,0,0,1,.49,10,11.2,11.2,0,0,1-6.26,3.5A15.73,15.73,0,0,1,405,158.37Z" />
            <path d="M563.34,135.45a13.87,13.87,0,0,0,.46-1.82,3.06,3.06,0,0,0-1.51-3.15,7.46,7.46,0,0,0-8.47,1,3.93,3.93,0,0,0-.17,5.52,11,11,0,0,0,3.48,2.51c1.85.93,3.72,1.84,5.58,2.76a15.59,15.59,0,0,1,3.38,2.26,7.17,7.17,0,0,1,.41,10.21,10.63,10.63,0,0,1-5.74,3.26,15.42,15.42,0,0,1-10-.92,7.34,7.34,0,0,1-2.36-1.61,3.77,3.77,0,0,1-.87-1.29,3,3,0,0,1,.27-3.06,3.77,3.77,0,0,1,3-1.25.38.38,0,0,1,.42.34c0,.19.1.38.14.58a6.14,6.14,0,0,0,4.32,4.7,8.14,8.14,0,0,0,5.75-.08,4.36,4.36,0,0,0,3-4.2,3.85,3.85,0,0,0-1.13-2.57,9.2,9.2,0,0,0-2.82-2c-1.49-.75-3-1.47-4.52-2.2a21.35,21.35,0,0,1-4.09-2.48c-4.14-3.28-4.15-8.87.1-12a13.6,13.6,0,0,1,12.19-2.07,6.33,6.33,0,0,1,3.43,2.29,3.88,3.88,0,0,1,.8,2.58,3.07,3.07,0,0,1-3.23,3,8.05,8.05,0,0,1-1.2-.07A3,3,0,0,1,563.34,135.45Z" />
            <path d="M592.6,148.17l0,.49v2.9l0,.47c-1.33,3.41-4,5.18-7.42,6a15.2,15.2,0,0,1-9.83-.93,7.1,7.1,0,0,1-2.53-1.78,3.71,3.71,0,0,1-.88-1.54,3.09,3.09,0,0,1,3.38-3.91c.28,0,.44.13.47.42,0,.12.06.23.08.35.45,2.64,2.59,4.85,6.18,5.27a7.39,7.39,0,0,0,4.43-.72,4.19,4.19,0,0,0,2.49-4,3.84,3.84,0,0,0-1.17-2.55,9.65,9.65,0,0,0-2.82-2c-1.35-.68-2.72-1.32-4.09-2a23.08,23.08,0,0,1-4.51-2.69c-4.12-3.27-4.11-8.89.15-12a13.56,13.56,0,0,1,12.18-2,5.48,5.48,0,0,1,3.91,3.25v.48l0,.47c0,.41,0,.83,0,1.25,0,.23,0,.46,0,.69a3.57,3.57,0,0,1-4.23,1.64c-.43-.12-.58-.36-.36-.78a.35.35,0,0,0,0-.11c1-2.85-.56-4.35-2.68-4.92a7.55,7.55,0,0,0-5.91.73,4.15,4.15,0,0,0-2.3,4.15,3.52,3.52,0,0,0,.73,1.87,8.77,8.77,0,0,0,3.14,2.53c1.6.84,3.23,1.6,4.84,2.4a23,23,0,0,1,3.93,2.28,7.8,7.8,0,0,1,2.82,3.64Z" />
            <path class="cls-14" d="M142.55,45.69c.71-1.45,1.71-2.73,2.35-4.22.33-.75.67-1.5,1-2.24a9.55,9.55,0,0,0,1.26-2.7c.63,1.31.34,5.54-.51,8a11,11,0,0,1-1.94,4.19,46.41,46.41,0,0,1-7.88,8.51c-2.41,2.21-5,4.29-7.14,6.74a25.14,25.14,0,0,0-4.51,7.28c-.19.46-.27,1.16-.81,1.22s-.72-.67-1-1.09a19,19,0,0,0-3.06-4.4,4.62,4.62,0,0,1-.79-1.2c-.52-1-.57-1.25.24-2a71.37,71.37,0,0,1,6-5.07,1.21,1.21,0,0,1,.34-.09,5.52,5.52,0,0,0,2.53-1.48A4.87,4.87,0,0,1,131,55.68c2-.86,3.65-2.39,5.49-3.56,2.19-1.39,3.79-3.51,5.61-5.36A2.92,2.92,0,0,0,142.55,45.69Z" />
            <path d="M114,142.07q.1-6.23.49-12.45a1.77,1.77,0,0,1,1.49-1.89,4.9,4.9,0,0,1,3.16.27c.54.19.43.61.38,1-.19,1.67-.44,3.32-.59,5a95.7,95.7,0,0,0-.34,17.59,9.62,9.62,0,0,0,.22,1.17c.39,1.75,1.22,2.32,3,2.1A12.48,12.48,0,0,0,125,154c.26-.1.56-.37.79.12s.16.67-.22.92a17.78,17.78,0,0,1-8,3.14c-1.73.15-2.31-.34-2.85-1.93a16.39,16.39,0,0,1-.69-4.72C113.86,148.39,113.92,145.23,114,142.07Z" />
            <path d="M61.17,140.52c.06-2.66.2-6.81.47-11a1.73,1.73,0,0,1,1.43-1.81,5,5,0,0,1,3.17.22c.45.15.5.45.45.84-.09.83-.18,1.67-.29,2.5a111.83,111.83,0,0,0-.88,17.45,20.72,20.72,0,0,0,.43,3.92c.39,1.83,1.21,2.39,3.08,2.15a13,13,0,0,0,3.24-.83c.23-.1.49-.33.7.08s.27.65-.14.93a16.29,16.29,0,0,1-2,1.22,17.33,17.33,0,0,1-5.63,1.93c-2.42.28-2.9-.6-3.37-2.18a17.93,17.93,0,0,1-.59-4.5C61.07,148.33,61.12,145.17,61.17,140.52Z" />
            <path class="cls-14" d="M121.27,45.2a3.43,3.43,0,0,1,1.06,2,9.65,9.65,0,0,1-.34,6.32A7.12,7.12,0,0,1,118.55,57c-3,1.44-5.63-.28-7.12-2.78a8.49,8.49,0,0,1-1-5.64,11.37,11.37,0,0,1,2.95-4.78c1.67-1.67,5.37-1.61,6.68.11A8.82,8.82,0,0,0,121.27,45.2Z" />
            <path class="cls-15" d="M515.06,122.51a13.07,13.07,0,0,1-6.65-1.34,18.58,18.58,0,0,1-5.86-4.06,15.45,15.45,0,0,1-3.2-5.27,30,30,0,0,1-1.54-5.89,28.15,28.15,0,0,1-.45-3.19c-.07-.7.08-.83.79-.87a19.31,19.31,0,0,1,4.73.56,32.58,32.58,0,0,1,4.58,1.3,14.38,14.38,0,0,1,7.07,5.25,18.8,18.8,0,0,1,3,5.82,15.62,15.62,0,0,1,.6,4c-.49.09-.51-.25-.59-.5a17.51,17.51,0,0,0-4.47-7.26,17.2,17.2,0,0,0-6.7-4,18.58,18.58,0,0,0-3.83-.91c-.79-.1-.89.05-.82.82a19.51,19.51,0,0,0,2.39,7.3,16.29,16.29,0,0,0,3.59,4.27,17.37,17.37,0,0,0,7.09,3.79C514.89,122.28,515,122.25,515.06,122.51Z" />
            <path class="cls-15" d="M103.75,30.49a8,8,0,0,1-1.2-2.46,17.07,17.07,0,0,0-7.08-7.87,19.16,19.16,0,0,0-7.09-2.39c-.93-.13-1,0-.86.95a19,19,0,0,0,2.17,6.75,17,17,0,0,0,4.89,5.6,17.29,17.29,0,0,0,6,2.87c.11,0,.25,0,.24.24a10.84,10.84,0,0,1-4.88-.66,18.79,18.79,0,0,1-8.31-5.45,15.62,15.62,0,0,1-2.45-4.36,29.17,29.17,0,0,1-1.63-6.23,22.17,22.17,0,0,1-.38-3c-.06-.88,0-.89.9-1a11.81,11.81,0,0,1,2.73.25A33.93,33.93,0,0,1,93.7,15.6a14.62,14.62,0,0,1,6.6,5.12,18.13,18.13,0,0,1,3,5.81A11.48,11.48,0,0,1,103.75,30.49Z" />
            <path class="cls-15" d="M546.25,122.56c.66-.26,1.32-.53,2-.78a16.62,16.62,0,0,0,10.2-10.09,16.22,16.22,0,0,0,1.11-4.5c.08-.91-.16-1.19-1.06-1a31.17,31.17,0,0,0-4.82,1.38,17.79,17.79,0,0,0-8.08,6.84,16.63,16.63,0,0,0-1.75,3.78,1.48,1.48,0,0,1-.41.79,7.28,7.28,0,0,1,.37-3.83,17.19,17.19,0,0,1,6-9,11.63,11.63,0,0,1,3.62-2.07,32.82,32.82,0,0,1,8.81-2c.24,0,.47-.1.7-.14.87-.13,1.21.09,1.08.92-.62,4.17-1.21,8.36-3.4,12.09a14.71,14.71,0,0,1-4.18,4.39,19.41,19.41,0,0,1-6.35,3,12.12,12.12,0,0,1-3.79.4Z" />
            <path class="cls-15" d="M132.49,34a17.86,17.86,0,0,0,8.39-5.06A16.53,16.53,0,0,0,144,23.85,14.82,14.82,0,0,0,145.29,19c.07-1.09-.11-1.33-1.14-1.12a21,21,0,0,0-6.52,2.26A16.86,16.86,0,0,0,130,28.77a8.08,8.08,0,0,1-.93,1.86,11.88,11.88,0,0,1,0-1.79,16.09,16.09,0,0,1,2.95-7.38,15.82,15.82,0,0,1,8.09-6.08c2.18-.65,4.38-1.12,6.6-1.57.7-.14,1.43,0,2.14-.21.5-.13.86.13.85.72a3.85,3.85,0,0,1,0,.48,67.23,67.23,0,0,1-1.87,8.48,15.78,15.78,0,0,1-9.63,9.84,15.16,15.16,0,0,1-4.71,1.22c-.28,0-.56,0-.84,0S132.42,34.19,132.49,34Z" />
            <path class="cls-15" d="M119,25.79c1.85-3.31,2.09-6.9,1.85-10.57a6.67,6.67,0,0,0-.47-1.72c-.84-2.41-1.55-4.87-3.21-6.9-.64-.79-1.1-.83-1.62.08a28,28,0,0,0-2.69,5.18,18.44,18.44,0,0,0-1,5.72,18.07,18.07,0,0,0,1.76,7.74c.07.14.12.29.18.44s-.09.34-.32.32v0a.33.33,0,0,0-.24-.24h0a.51.51,0,0,0-.22-.26,18.77,18.77,0,0,1-3.6-8.25A15.17,15.17,0,0,1,111.5,6.75a44,44,0,0,1,3.81-5.65L116,.27c.36-.41.67-.32,1,.08A46.67,46.67,0,0,1,122.1,8.1a15.13,15.13,0,0,1,1.19,10.25,17.77,17.77,0,0,1-4,7.92C118.88,26.27,118.87,26.08,119,25.79Z" />
            <path class="cls-15" d="M534,112.64c1.28-2.81,1.31-5.81,1.15-8.81a11.48,11.48,0,0,0-.92-3.44c-.26-.67-.58-1.32-.78-2a12.81,12.81,0,0,0-2.17-3.69c-.41-.59-.85-.53-1.32.16a24.9,24.9,0,0,0-1.69,2.74,17,17,0,0,0-2.12,8.82,14.5,14.5,0,0,0,1,5.35,10.66,10.66,0,0,1,.37,1.13c.08.37.4.79-.25,1a19.3,19.3,0,0,1-3.71-9.2c-.49-3.88.79-7.19,2.68-10.43a48.11,48.11,0,0,1,3.45-5c.93-1.21,1-1.16,2,0a41.52,41.52,0,0,1,4.68,7.2,15.09,15.09,0,0,1,1.18,10.26,16.69,16.69,0,0,1-3.07,6.68,1.64,1.64,0,0,1-.21.25h0a.92.92,0,0,0-.22.26h0c-.17.09-.11.34-.28.44h0a1,1,0,0,1-.23.23h0c-.41,0-.4-.17-.21-.44h0c.12-.14.08-.36.23-.47h0c.12-.14.08-.35.22-.49h0C533.91,113,533.87,112.8,534,112.64Z" />
            <path class="cls-16" d="M123.39,104.57a60.94,60.94,0,0,1-2.78,11.2,59.94,59.94,0,0,1-3.41,8.15,2.41,2.41,0,0,1-.65,1c-.32,0-.38-.26-.47-.44a12.93,12.93,0,0,1-1.42-5.75c0-1.27,0-2.54.13-3.82a12.16,12.16,0,0,1,1.77-4.89,1.21,1.21,0,0,1,.26-.24,2.81,2.81,0,0,0,.75-1h0c2.29-2.25,3.63-5.15,5.41-7.75.23-.33.25-1,.81-.82.39.14.12.71.17,1.09a.59.59,0,0,1-.08.34h0A10,10,0,0,0,123.39,104.57Z" />
            <path class="cls-14" d="M68.38,114.78a4.19,4.19,0,0,1-1,2.76,2.87,2.87,0,0,1-5.08-.76,3.87,3.87,0,0,1,.52-4,3,3,0,0,1,3.49-1.12A3.09,3.09,0,0,1,68.38,114.78Z" />
            <path class="cls-17" d="M121.27,45.2c-.64-.2-1-.78-1.43-1.21a5.2,5.2,0,0,0-5.19-.85,3.17,3.17,0,0,0-.64.52c-.62.61-1.23,1.24-1.86,1.85A2.69,2.69,0,0,0,111.3,47a2.27,2.27,0,0,1-.9,1.59A6.08,6.08,0,0,1,111.76,45a5.79,5.79,0,0,1,2.59-2.21c1.78-.66,3.59-.78,5.18.51A4.9,4.9,0,0,1,121.27,45.2Z" />
            <path class="cls-18" d="M142.55,45.69a1.51,1.51,0,0,1-.5,1.39,52.14,52.14,0,0,1-4.7,4.59,38.3,38.3,0,0,1-5,3.52c-.43.22-.87.37-1.29.6-.14-.09-.15-.2,0-.31.74-.81,1.82-1.11,2.66-1.77s1.86-1.23,2.77-1.85a28.84,28.84,0,0,0,3.78-3.46A19.38,19.38,0,0,0,142.55,45.69Z" />
            <path class="cls-19" d="M123.87,101.66l-.1-1.45c-.66,1-1.28,1.86-1.77,2.77a27.91,27.91,0,0,1-4,5.69.51.51,0,0,1-.44.13,11.88,11.88,0,0,1,1.61-2.32c1.5-2.19,2.88-4.46,4.24-6.74.13-.23.18-.53.59-.6A4,4,0,0,1,123.87,101.66Z" />
            <path class="cls-20" d="M117.18,68.73a2.5,2.5,0,0,1-1.11-.67l-5.88-5.89c-.26-.25-.54-.49-.5-.9a1.37,1.37,0,0,1,.8.49,75.08,75.08,0,0,1,6.19,6.17A1.57,1.57,0,0,1,117.18,68.73Z" />
            <path class="cls-21" d="M146.65,44.54a2.28,2.28,0,0,1,0-.59c1-2.3.58-4.7.57-7.09-.47.79-.44,1.85-1.37,2.37.33-.85.6-1.73,1-2.55s0-1.81.48-2.65c.31.23.24.47.24.68,0,2.07.09,4.15,0,6.22A6.45,6.45,0,0,1,146.65,44.54Z" />
            <path class="cls-22" d="M382.82,142c-.1,1.14-.19,2.29-.29,3.43a29.27,29.27,0,0,0,.3,7.82c-.43-.24-.37-.71-.41-1.06a20.77,20.77,0,0,1-.19-6.15c.19-1.16.09-2.37.31-3.54a.69.69,0,0,0-.22-.76c-.09-.36.16-.64.24-1C383.2,141,382.87,141.54,382.82,142Z" />
            <path class="cls-23" d="M131,55.48l0,.31a4.73,4.73,0,0,0-2.34,1.76,3.22,3.22,0,0,1-2.51,1.1c1.22-.66,2.16-1.73,3.34-2.44A4.36,4.36,0,0,1,131,55.48Z" />
            <path class="cls-24" d="M85.69,33.94c-.35.32-.23.74-.23,1.12,0,2.11,0,4.22,0,6.33a1,1,0,0,1-.22-.77c0-2.06-.12-4.12,0-6.18a2.62,2.62,0,0,1,.3-1.25C85.79,33.39,85.72,33.67,85.69,33.94Z" />
            <path class="cls-25" d="M527.28,113.87c.37-.25.18-.64.25-1l1.4,2.76A4.65,4.65,0,0,1,527.28,113.87Z" />
            <path class="cls-26" d="M119,25.79c0,.19,0,.38.24.48a5.83,5.83,0,0,1-1.22,1.31A5.21,5.21,0,0,1,119,25.79Z" />
            <path class="cls-27" d="M113.49,26.08l.32-.32c.52.36.49,1,.81,1.5A1.84,1.84,0,0,1,113.49,26.08Z" />
            <path class="cls-19" d="M123.39,104.57a4.25,4.25,0,0,1,.49-2.92A13.21,13.21,0,0,1,123.39,104.57Z" />
            <path class="cls-28" d="M533.25,115a2,2,0,0,1-1.07,1,7.09,7.09,0,0,1,.86-1.7C533.26,114.54,533.16,114.81,533.25,115Z" />
            <path class="cls-29" d="M82.78,145.77c0,.26,0,.46-.38.67a5.59,5.59,0,0,1,.14-2.58l.07,1.42C82.71,145.43,82.63,145.64,82.78,145.77Z" />
            <path class="cls-30" d="M213.83,145.3c0,.26,0,.46-.43.71a7.15,7.15,0,0,1,.18-2.63l.07,1.42C213.75,145,213.67,145.17,213.83,145.3Z" />
            <path class="cls-29" d="M454.54,145.77c0,.26-.05.46-.38.67a5.59,5.59,0,0,1,.14-2.58l.07,1.42C454.47,145.43,454.39,145.64,454.54,145.77Z" />
            <path class="cls-31" d="M231.54,145.5a.32.32,0,0,1-.2.38.17.17,0,0,1-.22-.18c.1-.69-.13-1.41.23-2.07l.05.93C231.61,144.85,231.37,145.21,231.54,145.5Z" />
            <path class="cls-32" d="M132.49,34l.2.34a3.41,3.41,0,0,1-1.48,0Z" />
            <path class="cls-33" d="M231.54,145.5a1.12,1.12,0,0,1-.14-.94c.23-.06.22-.4.48-.43C231.94,144.63,231.57,145,231.54,145.5Z" />
            <path class="cls-19" d="M117.57,108.8c.05.55-.3.8-.75,1A2.09,2.09,0,0,1,117.57,108.8Z" />
            <path class="cls-34" d="M533.25,115c-.28-.16-.2-.43-.21-.67l.25-.23c0,.17,0,.35.21.44Z" />
            <path class="cls-35" d="M134.34,146a.47.47,0,0,1,0,.21c-.1.13-.13.42-.34.33s-.14-.32,0-.5Z" />
            <path class="cls-36" d="M546.25,122.56a.33.33,0,0,0,0,.14c-.22.09-.44.15-.63,0C545.8,122.43,546,122.48,546.25,122.56Z" />
            <path class="cls-37" d="M214.13,144.14a.7.7,0,0,1-.27.71C213.8,144.55,213.81,144.29,214.13,144.14Z" />
            <path class="cls-38" d="M454.79,144.83a.4.4,0,0,1-.22.49A.37.37,0,0,1,454.79,144.83Z" />
            <path class="cls-38" d="M82.78,145.77c-.25-.09-.22-.29-.17-.49a.45.45,0,0,1,.2,0Z" />
            <path class="cls-38" d="M454.54,145.77c-.25-.09-.22-.29-.17-.49a.34.34,0,0,1,.2,0Z" />
            <path class="cls-34" d="M533.53,113.65a.47.47,0,0,1-.23.47A.4.4,0,0,1,533.53,113.65Z" />
            <path class="cls-34" d="M533.74,114.33a.45.45,0,0,1,.28-.44A.4.4,0,0,1,533.74,114.33Z" />
            <path class="cls-34" d="M533.76,113.15a.48.48,0,0,1-.22.49A.43.43,0,0,1,533.76,113.15Z" />
            <path class="cls-34" d="M534,112.64c0,.22,0,.41-.22.51A.57.57,0,0,1,534,112.64Z" />
            <path class="cls-38" d="M83,144.83a.4.4,0,0,1-.22.49A.37.37,0,0,1,83,144.83Z" />
            <path class="cls-37" d="M213.83,145.3c-.27-.1-.22-.3-.18-.5a.52.52,0,0,1,.21,0Z" />
            <path class="cls-34" d="M533.51,114.57l.23-.23A.26.26,0,0,1,533.51,114.57Z" />
            <path class="cls-34" d="M534,113.89a.28.28,0,0,1,.22-.26Z" />
            <path class="cls-34" d="M534.24,113.63l.21-.25A.26.26,0,0,1,534.24,113.63Z" />
            <path class="cls-27" d="M113.25,25.82a.27.27,0,0,1,.24.24A.33.33,0,0,1,113.25,25.82Z" />
            <path class="cls-27" d="M113,25.56a.28.28,0,0,1,.22.25C113.18,25.73,113.1,25.65,113,25.56Z" />
            <path class="cls-1" d="M508.48,140.56a25.39,25.39,0,0,1-1.37,8.33,14,14,0,0,1-2,3.55,9.43,9.43,0,0,1-12,2.44c-.46-.24-.87-.58-1.33-.8a1.88,1.88,0,0,1-1.05-2.45,39.29,39.29,0,0,1,7.29-15.58,11.46,11.46,0,0,1,3.59-3.13c3.15-1.64,4.84-.63,5.91,2.22a11.54,11.54,0,0,1,.61,2.43C508.36,138.68,508.41,139.8,508.48,140.56Z" />
            <path class="cls-39" d="M382.82,142c-.19-.39.28-.9-.26-1.22a.77.77,0,0,1,.37-.7A2.41,2.41,0,0,1,382.82,142Z" />
            <path class="cls-1" d="M345.83,143c1.45,0,1.46,0,1.2,1.25a14.36,14.36,0,0,1-5.39,8.77,6.22,6.22,0,0,1-2.79,1.29,3,3,0,0,1-3.79-2.51c-.51-3,.25-5.47,3.35-7.12a14.84,14.84,0,0,1,5.15-1.45C344.39,143.09,345.23,143,345.83,143Z" />
            <path class="cls-1" d="M191.4,143h.67c.49,0,.65.18.55.65a17.6,17.6,0,0,1-.86,3.1,14.34,14.34,0,0,1-4.65,6.27,7.31,7.31,0,0,1-2.79,1.31,3,3,0,0,1-3.83-2.61c-.5-3.07.4-5.55,3.55-7.12A15.33,15.33,0,0,1,189,143.2C189.8,143.09,190.64,143,191.4,143Z" />
            <path class="cls-1" d="M522.34,150.23a6,6,0,0,1,3.4-5.52A14.76,14.76,0,0,1,531,143.2c1-.12,2-.19,3-.23.7,0,.74.07.62.77a16.86,16.86,0,0,1-2.71,6.45,11.74,11.74,0,0,1-3.39,3.2,5.85,5.85,0,0,1-2.2.9,3,3,0,0,1-3.82-2.63A13.81,13.81,0,0,1,522.34,150.23Z" />
            <path class="cls-1" d="M425.16,140.78a15.76,15.76,0,0,1,3.15-8.58,6.49,6.49,0,0,1,5.2-2.51,4.52,4.52,0,0,1,2.29,8.24,12.9,12.9,0,0,1-4.82,2A33.3,33.3,0,0,1,425.16,140.78Z" />
        </g>
    </g>
</svg>
