<svg xmlns="http://www.w3.org/2000/svg" viewBox="0 0 66.62 108.4"><defs><style>.cls-1{fill:#0679cc;}.cls-2{fill:#010101;}.cls-3{fill:#acde63;}.cls-4{fill:#161616;}.cls-5{fill:#181819;}.cls-6{fill:#146ebe;}.cls-7{fill:#1f1f21;}.cls-8{fill:#1f1f20;}.cls-9{fill:#328cd3;}.cls-10{fill:#d4ebb3;}.cls-11{fill:#cde9a5;}.cls-12{fill:#9dc874;}</style></defs><title>Element 2</title><g id="Ebene_2" data-name="Ebene 2"><g id="KaK_Logo_Bild" data-name="KaK Logo Bild"><path class="cls-1" d="M2.56,33.94A29,29,0,0,0,4.47,40.7a27.84,27.84,0,0,0,8.59,11c1.54,1.15,3.2,2.09,4.82,3.1a81.34,81.34,0,0,1,8.2,6,4,4,0,0,1,.48.52q3.69,3.78,7.48,7.46a41.31,41.31,0,0,1,6,9.61,7.07,7.07,0,0,1,.53,2.44c.09,1.75.42,3.46.42,5.23a22.46,22.46,0,0,1-1.27,6.91,24.19,24.19,0,0,1-5.77,9.26c-1.8,1.88-3.66,3.69-5.5,5.52a3.39,3.39,0,0,1-.44.41c-.57.44-.77.41-1.06-.28a25,25,0,0,1-1.63-5.62c-.14-.94-.28-1.89-.43-2.84a25.21,25.21,0,0,1,0-7.51c.23-1.7.26-3.43.51-5.12.22-1.42.29-2.85.56-4.27a22.92,22.92,0,0,0,.2-4.54,22,22,0,0,0-1.66-7.68,16.94,16.94,0,0,0-2.07-3.63,37.62,37.62,0,0,0-4.44-5c-3-3-6.31-5.65-9.27-8.69a35.4,35.4,0,0,1-4.06-5.17A16.7,16.7,0,0,1,2.3,41.39c-.26-2.37,0-4.74-.1-7.1C2.19,34.05,2.31,33.92,2.56,33.94Z"/><path class="cls-2" d="M59.41,45.69c.71-1.45,1.71-2.73,2.36-4.22.32-.75.66-1.5,1-2.24A10.13,10.13,0,0,0,64,36.53c.62,1.31.33,5.54-.51,8a11.32,11.32,0,0,1-1.94,4.19,46.76,46.76,0,0,1-7.88,8.51A96.88,96.88,0,0,0,46.55,64a24.9,24.9,0,0,0-4.5,7.28c-.19.46-.28,1.16-.82,1.22s-.72-.67-.95-1.09A19,19,0,0,0,37.22,67a4.62,4.62,0,0,1-.79-1.2c-.51-1-.57-1.25.25-2a71.23,71.23,0,0,1,6-5.07,1.21,1.21,0,0,1,.34-.09,5.47,5.47,0,0,0,2.53-1.48,4.87,4.87,0,0,1,2.23-1.49c2-.86,3.65-2.39,5.49-3.56,2.19-1.39,3.79-3.51,5.62-5.36A2.9,2.9,0,0,0,59.41,45.69Z"/><path class="cls-2" d="M38.13,45.2a3.45,3.45,0,0,1,1.07,2,9.72,9.72,0,0,1-.35,6.32A7.12,7.12,0,0,1,35.41,57c-3,1.44-5.62-.28-7.12-2.78a8.49,8.49,0,0,1-1-5.64,11.47,11.47,0,0,1,2.95-4.78c1.67-1.67,5.37-1.61,6.69.11A8.75,8.75,0,0,0,38.13,45.2Z"/><path class="cls-3" d="M20.62,30.49A7.83,7.83,0,0,1,19.41,28a17.07,17.07,0,0,0-7.08-7.87,19.1,19.1,0,0,0-7.09-2.39c-.93-.13-1,0-.86.95a18.84,18.84,0,0,0,2.18,6.75,16.78,16.78,0,0,0,4.89,5.6,17.16,17.16,0,0,0,6,2.87c.11,0,.25,0,.24.24a10.84,10.84,0,0,1-4.88-.66,18.71,18.71,0,0,1-8.3-5.45A15.65,15.65,0,0,1,2,23.71,29.77,29.77,0,0,1,.4,17.48a22.17,22.17,0,0,1-.38-3c-.06-.88,0-.89.9-1a12,12,0,0,1,2.74.25,33.84,33.84,0,0,1,6.9,1.79,14.65,14.65,0,0,1,6.61,5.12,18.54,18.54,0,0,1,3,5.81A12,12,0,0,1,20.62,30.49Z"/><path class="cls-3" d="M49.35,34a17.84,17.84,0,0,0,8.4-5.06,16.92,16.92,0,0,0,3.13-5.08A14.81,14.81,0,0,0,62.15,19c.07-1.09-.11-1.33-1.13-1.12a20.94,20.94,0,0,0-6.53,2.26,16.86,16.86,0,0,0-7.59,8.61A8.08,8.08,0,0,1,46,30.63a11.88,11.88,0,0,1,0-1.79,16.09,16.09,0,0,1,3-7.38A15.86,15.86,0,0,1,57,15.38c2.18-.65,4.39-1.12,6.61-1.57.7-.14,1.42,0,2.14-.21.49-.13.85.13.84.72a2.57,2.57,0,0,1,0,.48,69,69,0,0,1-1.86,8.48,15.83,15.83,0,0,1-9.63,9.84,15.29,15.29,0,0,1-4.72,1.22c-.28,0-.56,0-.83,0S49.29,34.19,49.35,34Z"/><path class="cls-3" d="M35.9,25.79c1.86-3.31,2.09-6.9,1.85-10.57a6.29,6.29,0,0,0-.47-1.72c-.83-2.41-1.55-4.87-3.2-6.9-.65-.79-1.1-.83-1.63.08a27.91,27.91,0,0,0-2.68,5.18,18.16,18.16,0,0,0-1,5.72,18.07,18.07,0,0,0,1.76,7.74c.07.14.12.29.18.44s-.08.34-.32.32v0a.33.33,0,0,0-.23-.24h0a.51.51,0,0,0-.22-.26,18.89,18.89,0,0,1-3.6-8.25A15.22,15.22,0,0,1,28.36,6.75,44.08,44.08,0,0,1,32.18,1.1c.22-.28.45-.56.68-.83s.67-.32,1,.08A47.31,47.31,0,0,1,39,8.1a15.19,15.19,0,0,1,1.18,10.25,17.77,17.77,0,0,1-4,7.92C35.74,26.27,35.73,26.08,35.9,25.79Z"/><path class="cls-4" d="M38.13,45.2c-.64-.2-1-.78-1.42-1.21a5.22,5.22,0,0,0-5.2-.85,3.17,3.17,0,0,0-.64.52L29,45.51A2.64,2.64,0,0,0,28.16,47a2.24,2.24,0,0,1-.9,1.59A6,6,0,0,1,28.63,45a5.69,5.69,0,0,1,2.59-2.21,5,5,0,0,1,5.18.51A4.88,4.88,0,0,1,38.13,45.2Z"/><path class="cls-5" d="M59.41,45.69a1.46,1.46,0,0,1-.5,1.39,50.86,50.86,0,0,1-4.7,4.59,37.64,37.64,0,0,1-5,3.52c-.42.22-.87.37-1.29.6-.14-.09-.15-.2,0-.31.74-.81,1.82-1.11,2.66-1.77s1.86-1.23,2.78-1.85a29.41,29.41,0,0,0,3.77-3.46A19.38,19.38,0,0,0,59.41,45.69Z"/><path class="cls-6" d="M34,68.73a2.5,2.5,0,0,1-1.11-.67l-5.88-5.89c-.25-.25-.53-.49-.49-.9a1.43,1.43,0,0,1,.8.49,75,75,0,0,1,6.18,6.17A1.57,1.57,0,0,1,34,68.73Z"/><path class="cls-7" d="M63.52,44.54a1.65,1.65,0,0,1,0-.59c1-2.3.57-4.7.57-7.09-.48.79-.45,1.85-1.37,2.37.32-.85.59-1.73,1-2.55s0-1.81.48-2.65c.31.23.24.47.24.68,0,2.07.09,4.15,0,6.22A6.36,6.36,0,0,1,63.52,44.54Z"/><path class="cls-8" d="M47.87,55.48l0,.31a4.77,4.77,0,0,0-2.34,1.76,3.19,3.19,0,0,1-2.51,1.1c1.23-.66,2.16-1.73,3.34-2.44A4.45,4.45,0,0,1,47.87,55.48Z"/><path class="cls-9" d="M2.56,33.94c-.36.32-.24.74-.24,1.12,0,2.11,0,4.22,0,6.33a1,1,0,0,1-.22-.77c0-2.06-.12-4.12,0-6.18a2.51,2.51,0,0,1,.3-1.25C2.65,33.39,2.58,33.67,2.56,33.94Z"/><path class="cls-10" d="M35.9,25.79c0,.19,0,.38.24.48a5.83,5.83,0,0,1-1.22,1.31A5.21,5.21,0,0,1,35.9,25.79Z"/><path class="cls-11" d="M30.35,26.08l.32-.32c.52.36.49,1,.81,1.5A1.84,1.84,0,0,1,30.35,26.08Z"/><path class="cls-12" d="M49.35,34l.21.34a3.45,3.45,0,0,1-1.49,0Z"/><path class="cls-11" d="M30.12,25.82a.27.27,0,0,1,.23.24A.3.3,0,0,1,30.12,25.82Z"/><path class="cls-11" d="M29.89,25.56a.28.28,0,0,1,.22.25C30,25.73,30,25.65,29.89,25.56Z"/></g></g></svg>