<svg xmlns="http://www.w3.org/2000/svg" viewBox="0 0 424.01 454.37"><defs><style>.cls-1{fill:#fff;}</style></defs><title>Element 3</title><g id="Ebene_2" data-name="Ebene 2"><g id="Ebene_1-2" data-name="Ebene 1"><path d="M345.47,221a7.45,7.45,0,0,0,3.48-7,9.41,9.41,0,0,1,5-9.51,4.36,4.36,0,0,0,2.11-5.29c3.47.89,5.56,2.66,5.08,7.56L364.3,209c4.08-5.48,10.31-7.33,17.18-7.59,2.86-.1,5.6-.56,7.74-2.47a5.61,5.61,0,0,0,1.82-3.75c0-.86-1.6-1.72-2.39-2.49,3.7-2.13,6.49-1.12,7.78,3.23a10.43,10.43,0,0,1-3,11.25l2.76-.71c.7,6.62-2.4,11.23-8.05,12.31,1.56,1.6,2.44,1.72,5.18.7-.63,3.57-4.61,6.25-10.27,7l1.68,1.56c-2.51,3.81-6.5,3-10.35,3.07a7.92,7.92,0,0,0,5.6,6.38c-3.36,4-7.67,4.3-12.92.24l1.05,4.09-7.16-1.22a22.75,22.75,0,0,1,.89,4.43,32.79,32.79,0,0,1-.75,5.44,17,17,0,0,0-2.29-2.06c-.78-.45-2-1.14-2.54-.86-4.38,2.05-8.24,1.25-12-2.13,0,1.31,0,2.17,0,3,0,1.36-.25,2.61-1.93,2.8s-3.34-.25-3.84-2.06c-.53-2-1.26-3.75-3.38-4.14-2.77-.51-5,.81-6.57,3-3,4-4.59,8.57-5.74,13.65-4.25-7.16-3.63-14.34-1.11-21.5-9.82-5.27-17.25-12.93-23.25-21.94-3.24-4.85-4-10.54-3.38-16.44.29-2.82-.2-5.72-.35-9l5.71,2.2c-3.77-7.27-4.93-14.82.15-22.28,2.54,1.54,5.13,2.89,7.45,4.6a8.44,8.44,0,0,1,2.15,3.42,8.31,8.31,0,0,1,0,2.66c1.91-3.39,1.05-7.69-2-10.63A11.5,11.5,0,0,1,304.4,164a17.21,17.21,0,0,1,.73-3.94c.93-3.31.43-5-2.29-7.27,3.28-2.21,8.58-2.2,11.92,4.47l.92-2.45,2.55.65A100,100,0,0,1,320.85,145c1.79-4.94,5.41-8.69,9.19-12.24a14.32,14.32,0,0,0,4.7-8.6c.55-3.93-2.06-6-5.67-4.58a5.34,5.34,0,0,1,6.95-4.83c6.54,2.25,10,8,9.15,15l2.41-3.31a15.46,15.46,0,0,1,4.77,8.76,13.08,13.08,0,0,1-2.43,9.88l.69.63,5.23-4a12.26,12.26,0,0,1-.21,7.7,67.4,67.4,0,0,1-3.94,7.4l2.56-.37c.58,5.76-3.44,8.68-7.47,11.59,3.24,2.8,7,3.35,10.59,1.54.85,5.95-3.41,10.11-11.43,11.35l4.06,2.56-8.43,5c3.72,1.46,6.61,4.4,8.1,9.13a17.13,17.13,0,0,0-3.92.07c-1.06.28-2.47.85-2.88,1.71-2.5,5.2-6.53,7.6-12.62,7.26.89,1.19,1.63,2.13,2.32,3.11,1,1.46,1.53,3,.26,4.57s-4.22,2.08-5.65.87c-2.69-2.26-5.63-3.34-8.66-1.24-3.38,2.34-4.17,6-3,9.76,1.44,4.71,3.44,9.24,5.21,13.85l.69-.22c.22-2.06.06-4.26.75-6.15a28.42,28.42,0,0,1,3.62-6.28c1.38-2,3-3.79,4.73-5.89l2.21,4.41c1.46-6.41,4.69-11.53,12-13.43C344.12,213.82,348.74,217,345.47,221Zm-8.12-75-.61-.17c-1.91,8.92-6,17.2-12.21,25.54C319,178.8,313.08,186,309.05,194.52c-2.26,4.77-3.29,10-2.34,14.64a31.68,31.68,0,0,1,5-18.21c2.59-4.27,5.59-8.32,8.55-12.36,5.06-6.94,10.48-13.66,13.72-21.72C335.36,153.36,336.23,149.63,337.35,146Zm34.33,71.65c-.92.34-1.81.77-2.76,1-7.35,1.94-14.74,3.73-22.05,5.82-4.18,1.19-8.22,2.87-12.33,4.33l.32.89C346.34,223.15,360.1,223.84,371.68,217.64ZM331,172.42a60.71,60.71,0,0,1,5.88-3.21,53.22,53.22,0,0,1,6.27-1.77C338.56,167.21,333.19,169.45,331,172.42ZM316,212.29c1.38-1.61,2.6-3.71,4.4-5s4.06-1.49,5.62-2C321.54,204.54,317.82,207,316,212.29Zm7.87-22.58a62.41,62.41,0,0,1,6.07-1.73c2.09-.39,4.25-.41,6.59-.61C331.83,186.5,327.62,187.07,323.82,189.71Zm-2.25-30.16c-.34,3.1-.66,6.08-1,9.23C322,165.75,322.7,162.81,321.57,159.55Zm20.73-11c-2.48,2.67-3.93,5.13-3.83,8Z"/><path d="M81.17,245.35c-3.59,3.57-7.14,3.9-11.34,2.64-1.43-.43-3.39.92-5.37,1.54a11.33,11.33,0,0,1,.27-8.88l-7.34,1.18,1-4c-5.47,4.21-9.56,3.43-12.9-.27,3.29-.94,5-3.28,5.93-6.53-3.85.2-7.63.56-10.64-2.71l2.06-1.79c-4.74-.6-8.53-2.28-10.59-6.42l5.53-.59c-6.47-2.54-8.87-6.13-8.32-12.9l3.39.82c-4.14-3.67-4.74-7.58-3.49-12,1-3.59,5.08-4.9,7.7-2.49-3.17,1.07-3.69,3.2-1.29,5.56a11.06,11.06,0,0,0,7.81,3c5.48.17,10.7,1.26,15.13,4.79,1.11.89,2.25,1.74,3.23,2.5l1-2.05,1.85,1.46c-1.11-4.68.19-7.82,5-9.14-1.3,2.69.15,4.33,2,5.69,3.27,2.38,5.43,5,4.77,9.57-.32,2.23.61,4.7,3.34,6.54-2.6-4.16,1.51-7,.84-10.63,6,.78,10.63,5.89,12.06,13.15l2.34-4.57a71.08,71.08,0,0,0,4.42,5.63,15.09,15.09,0,0,1,4.55,10.88,6.16,6.16,0,0,0,.22,2.56c1.49-3.23,3.15-6.38,4.41-9.69,1.18-3.15,2.43-6.36,1.26-9.9-1.82-5.5-6.36-7-10.91-3.43a4.59,4.59,0,0,1-5.88-.14c-1.86-1.58-1.16-3.27-.12-4.89.63-1,1.44-1.86,2.06-2.65-2.29-.59-4.81-.89-7-1.92a9.91,9.91,0,0,1-4.31-3.86c-2.2-4.11-3.74-4.18-8.2-3.5,1.54-4.46,4.11-8,9.28-9.65-3.87-.78-6.8-2.34-8.71-5.05l4-2.68c-9.36-.68-11.86-4.26-12.42-10.6,1.9.23,3.88.84,5.75.6s3.66-1.34,5.86-2.21c-5-2.8-8.36-6.19-8.34-12l3.61.68c-4.44-4.76-6.62-9.69-4.84-16,1.39,2.34,2.88,4.32,5.83,4.3-4.2-7.65-3.47-13.3,2.39-18.67l1.9,2.89.67-.12c0-.87,0-1.75,0-2.62A12,12,0,0,1,89,115c3.9-1.38,6.56.29,8,4.57-1.42,0-3.42-.61-4.44.13-1.75,1.28-2.11,3.43-1.4,5.79a18,18,0,0,0,5.25,8c6.34,6,11,13,10.17,22.76a7.83,7.83,0,0,1,1.67-1.18,9.06,9.06,0,0,1,2-.21l.33,1.89c1.67-1.54,3.16-3.76,5.2-4.55s4.66-.18,7.14.14c-3,2.38-3.25,5.12-2.32,8.4,1.21,4.29.65,8.19-2.78,11.59-3,3-4.53,6.62-2.63,11.07-.8-4.6,2.31-6.2,5.56-7.82a38.79,38.79,0,0,0,4.29-2.91c4.9,7.25,4,14.63.31,22.25l5.43-1.89c0,4-.21,7.6-.1,11.22A26.32,26.32,0,0,1,124,223c-4.67,5.32-9.41,10.6-15.41,14.52-1.44.95-3,1.75-4.63,2.7,2.35,6.87,3.14,14-1,21.14-.92-2.64-1.59-5.11-2.64-7.42-1.36-3-2.59-6.15-5.61-8-3.4-2.11-6.36-.95-7.39,2.93-.57,2.14-2.16,2.53-4.06,2.46s-1.78-1.72-2.06-2.93A15.31,15.31,0,0,1,81.17,245.35Zm10.67-89.21q-1.71-5.74-3.43-11.5l-.51.16,3.66,11.6a33.41,33.41,0,0,0,2.4,5.42c7.17,10.68,14.46,21.28,21.71,31.9,2,5.12,3.71,10.3,3.06,15.94a22,22,0,0,0-2.92-16.06c-.76-1.55-1.39-3.17-2.28-4.64C106.72,177.75,97.36,168.21,91.84,156.14Zm-1.45,72.51c-2.94-1.14-5.64-2.35-8.44-3.26-10.17-3.29-21.11-3.94-30.83-8.89a19.25,19.25,0,0,0,5,2.6C67.41,222.33,78.78,225.43,90.39,228.65Zm8.28-23c5.86-.81,8.66,2.9,11.18,7.77C108.35,207.33,104.12,204.5,98.67,205.62Zm3.8-15.49c-4-3.08-8.44-3.65-13.17-2.66A26.14,26.14,0,0,1,102.47,190.13ZM80.72,147.4c4,2.2,5.34,6,6.53,10.77C87.11,152.72,84.56,148.69,80.72,147.4Zm2.42,20,10.24,3.79A15.5,15.5,0,0,0,83.14,167.36Zm21.66,1.16c-.23-3.34-.44-6.41-.63-9.18C102.41,162.19,103.64,165.23,104.8,168.52Zm-39.92,57c-4.75-.53-7.43,0-9.1,1.55Zm5.75,8.24.17.54,7.67-2.55-.16-.5Z"/><path d="M267.61,123.24l29.47,30.49c-1.24,2.37-2.56,4.76-3.75,7.22-5.26,11-6.27,22.52-4.9,34.41,1.83,15.84,7.49,30.28,15.79,43.84,4.63,7.57,7.6,15.91,7.69,24.89a38.68,38.68,0,0,1-8.21,24.07c-7.58,10.09-17.56,17.15-28.91,22.24-7.55,3.4-15.47,6-23.14,9.13C240.8,324,230.21,329,220.91,336.26c-3,2.32-5.63,5-8.42,7.54-4.93-6.45-12.09-11-19.5-15.22-11.74-6.65-24.43-11.09-37-15.83a78.71,78.71,0,0,1-31.78-21.63c-7.55-8.56-11.36-18.64-10.34-30.16.73-8.36,4-15.92,8.29-23a108.7,108.7,0,0,0,15-41.9,62.53,62.53,0,0,0-5.48-36.4c-.45-.93-1-1.78-1.54-2.69-1.71-3.12-1.68-3.1.92-5.79q13.08-13.5,26.1-27.06c1.09-1.15,1.84-1.29,3.39-.66,12.62,5.11,25.53,9.31,39,11.52a79.16,79.16,0,0,0,33.56-1.48C244.56,130.41,255.81,126.77,267.61,123.24ZM135.5,155.72a55.43,55.43,0,0,1,8,22.83c1.57,15.22-1.33,29.79-6.89,43.82-2.88,7.29-6.72,14.2-10.07,21.31-6.5,13.8-6.07,27.09,3.24,39.56a58.32,58.32,0,0,0,22.32,17.95c10.27,4.78,21,8.63,31.35,13.17,10.64,4.65,20.86,10.05,28,18.67,3.89-3.2,7.49-6.73,11.62-9.47,11.73-7.79,24.79-12.81,38-17.55,12.18-4.38,22.94-11.07,31.37-21.05,8.12-9.62,11.23-20.68,7.64-32.9-1.57-5.34-4.33-10.36-6.84-15.38-6.3-12.55-11.06-25.59-12.8-39.57s-.65-27.6,6.92-40.05a2.51,2.51,0,0,0-.32-2.35c-7-7.32-14.15-14.54-21.21-21.83a2.35,2.35,0,0,0-2.89-.72c-9.25,3.25-18.44,6.68-27.81,9.49-13.92,4.18-28,4.83-42.2.95a240.83,240.83,0,0,1-31.33-11.21,2.52,2.52,0,0,0-2.21.18C151.39,139.59,143.44,147.68,135.5,155.72Z"/><path d="M280.1,375.4a8.92,8.92,0,0,0,1.33,1.14c1,.62,2.16,1,3.13,1.73,1.59,1.13,3,3.2,4.66,3.37s3.52-1.54,5.33-2.31c9-3.79,17.7-3.94,26.48.91,2.1,1.17,5.09,1.08,7.65,1,2.17-.08,2.64-2.13,2.23-3.67a18.83,18.83,0,0,1-2.56-3.56c-.21-.47.79-2.06,1.38-2.15,1-.15,2.68.09,3.25.82,2.34,2.95.43,9.43-3.05,10.7A19.13,19.13,0,0,1,326,384a40,40,0,0,1,3,5.6A13.12,13.12,0,0,1,319.77,407c-6,1.41-12.43-2.95-12.87-9.14A8.66,8.66,0,0,1,311,389.5a7.68,7.68,0,0,1,8.15.05,6.93,6.93,0,0,1,2.64,8.19,5.42,5.42,0,0,1-6.43,3.29,5.27,5.27,0,0,1-1.55-.53c-1.72-.92-2.53-2.5-1.67-4.16a3.59,3.59,0,0,1,3.13-1.28c1.86.38,2,2.1,1.62,3.89a3.48,3.48,0,0,0,2.84-3.79,4,4,0,0,0-2.75-4,5,5,0,0,0-5.82,1.37,7,7,0,0,0,1.85,11c3.84,2.15,6.89,1.86,10.56-1a11.31,11.31,0,0,0,3.53-11c-1.72-5.89-6.25-9-11.55-11.08-8-3.13-15.58-1.26-22.92,2.4-.76.38-1.48.83-2.23,1.26,1.22,2.66,2.35,5.26,3.61,7.8,1.68,3.41,3.92,4.46,6.84,3.36,3.42-1.3,4.75-4,3.7-7.65a16.79,16.79,0,0,1-.58-2.45c1.55,2.11,2.62,4.4,2.1,7.06a7.06,7.06,0,0,1-5.92,5.45c-3.67.56-6.4-.67-8-3.72-1.37-2.58-2.65-5.22-4-7.82-.06-.14-.23-.22-.65-.59-12.12,11.06-25.92,14.41-41.66,7.79.27,2.95-1,4.24-3.78,4.47-6.88.56-13.75,1.61-20.64,1.87-8.11.31-16.26.17-24.37-.14-5-.2-9.92-1.14-14.89-1.64-2.71-.27-4.61-1.19-4.23-4.56-15.83,6.57-29.58,3.26-42-8.05-1.56,3.06-3.07,5.71-4.29,8.5-2.46,5.59-9.91,4.6-12.57,1.25-2.14-2.68-2-6.5.87-10.29a31,31,0,0,1-1,4c-1.12,2.91,1.5,5.75,3.94,6.59,2.82,1,5,.07,6.44-2.83,1.38-2.74,2.63-5.55,4-8.49-7.79-4.17-15.85-7-24.81-3.63-5.29,2-9.9,4.91-11.75,10.61a10.89,10.89,0,0,0,7.62,13.79,8.64,8.64,0,0,0,9.52-5,7.12,7.12,0,0,0-2.78-8.29,5,5,0,0,0-6.66,1.51c-1.41,2.35-.87,4.07,1.93,5.71.07-.51,0-1.05.22-1.35.66-.87,1.37-2.2,2.2-2.31a3.33,3.33,0,0,1,2.76,1.56,3.54,3.54,0,0,1-.72,3.12,5.76,5.76,0,0,1-7.57.22,7,7,0,0,1-.38-8.91c2.26-2.71,5.21-2.95,8.25-2.24,2.88.68,5.21,4.14,5.46,7.41.35,4.68-1.41,7.89-5.46,9.94a11.48,11.48,0,0,1-12.29-1.46c-5.86-5.19-6.63-12.91-1.92-19.2a16.15,16.15,0,0,0,1-1.66c-.9,0-1.51,0-2.12,0a5.92,5.92,0,0,1-6-6.08,11.15,11.15,0,0,1,.6-4.45,3.34,3.34,0,0,1,2.68-1.73A3.64,3.64,0,0,1,95.39,374c.15.73-1,1.8-1.69,2.59-.24.27-.89.16-1.34.22-.08,3.31,1.12,4.36,4.22,4.67,3.87.39,6.85-1.77,10.11-3.06,7.73-3.07,15.24-2.17,22.63,1,3.25,1.39,6.35,3.79,9.23-.7.68-1.05,2.33-1.48,4-2.47-.75-.06-1-.11-1.27-.11-4.88,0-7.15-1.67-8.41-6.06a9.16,9.16,0,0,1,3.9-10.14c6.21-4,12.91-2,17.22,3.6,2,2.6,3.32,5.73,5.07,8.55a3.36,3.36,0,0,0,2,1.57,26.89,26.89,0,0,1,13.39,5c-1.44-3-2.87-6-4.56-9.56l3.09,1.48,0-.06,10.23,3.41h0a42.13,42.13,0,0,0,6,2.08,119.42,119.42,0,0,0,33.5,1.64,82.46,82.46,0,0,0,20.22-3.93,11.12,11.12,0,0,0,1.24-.63l-.08.06,9.73-3.63c-1.3,2.77-2.73,5.78-4.15,8.8a27.06,27.06,0,0,1,13.66-4.67c.45,0,1-.82,1.26-1.38,2.32-4.81,4.87-9.38,9.45-12.54,6.31-4.35,16.73-.49,17.19,7,.18,3-.55,5.66-2.63,7.52a7.2,7.2,0,0,1-8.41,1.2,14,14,0,0,1-2-1.32,6.49,6.49,0,0,1-.84-7.67,5,5,0,0,1,6.39-2.17,3.81,3.81,0,0,1,2,2.5,2.79,2.79,0,0,1-1.34,2.42c-1,.24-2.19-.31-3.21-.73-.46-.19-.7-.9-1.06-1.4-1.83,2.1-1.59,4.35.47,5.77,3,2.05,6.8.61,8-3a6,6,0,0,0-1.38-6.38c-2.26-2.42-5-3.69-8.34-3-4.74.95-11.07,8.2-11.71,13.1,2.53.26,5.06.46,7.58.81C276.48,374.55,278.28,375,280.1,375.4ZM252.2,393c13.45,3.67,24.23-.75,33.87-9.61-5.33-5.51-12.18-7-19.43-7.29-.51,0-1.35.76-1.55,1.34C262.83,384.2,259.08,389.69,252.2,393Zm-81.53.2c-2.39-2.19-5.13-4.13-7.11-6.66a41.69,41.69,0,0,1-4.65-8.48c-.66-1.41-1.27-2.31-2.94-2-2.1.35-4.23.55-6.31,1a23.24,23.24,0,0,0-12.24,6.47c5.09,3.6,9.61,7.74,15.67,9.46A31.89,31.89,0,0,0,170.67,393.24ZM144,366.62l-.81.13c0,.27,0,.65-.16.78-.82.66-1.73,1.78-2.54,1.72s-2.43-1.15-2.49-1.88a3.9,3.9,0,0,1,1.59-3.07c2.18-1.29,5.54,0,6.86,2.25,1.77,3,1,5.85-2.41,9,2.19-.48,4.24-1,6.31-1.35s4.33-.51,6.88-.79c-1.58-2.65-2.79-5.27-4.54-7.45-2.61-3.25-5.59-6.29-10.37-5.64a8.43,8.43,0,0,0-6.89,4.82,6.11,6.11,0,0,0,.91,6.67,4.38,4.38,0,0,0,5,1.79,6.06,6.06,0,0,0,3.3-3C145.13,369.54,144.29,368,144,366.62Zm16.13,9.49c2.07,3.5,3.6,6.71,5.71,9.48,2.46,3.22,5.66,5.66,10.08,5.46.57,0,1.63-.7,1.59-.87-.64-2.83-.61-6.34-2.33-8.27C171.59,377.89,166.58,375.94,160.14,376.11Zm103-.26a43.56,43.56,0,0,0-5.29.82c-5.6,1.62-10.5,3.92-11.22,10.81-.4,3.8.1,4.45,3.86,3.34.07,0,.12-.11.19-.13C257.8,388.4,260.43,382.4,263.16,375.85Zm-49.85,17c-2.24-1.67-1.47-3.69-1.18-5.46.09-.52,1.52-1,2.39-1.13a2,2,0,0,1,1.61,1c.34,1.88,1,3.9-.94,5.54h4.74c-2.23-1.45-1.41-3.51-1.26-5.27.05-.53,1.41-1.13,2.26-1.31.52-.11,1.69.45,1.73.8.21,1.93,1,4-.89,5.83h4a31.54,31.54,0,0,1-.6-4c-.1-3.34-1.73-4.51-5-3.42a5.34,5.34,0,0,1-2,.56c-3.26-.27-6.5-.67-10.25-1.08,2.34,2.14,2.43,6.15.59,7.87Zm-10-5.66-.24.83a27,27,0,0,0-4.32,1.17c-.8.35-1.33,1.32-2,2,.77.56,1.52,1.56,2.32,1.6,2.42.14,4.86-.1,6.6-.16-.13-1.17-.38-2.51-.4-3.86,0-1.65-.3-3-2.18-3.47-2.6-.63-4.83.08-6,2.46a17.27,17.27,0,0,0,2.45-.84c.59-.31,1.18-1.23,1.61-1.13A7,7,0,0,1,203.29,387.2Z"/><path d="M119.11,317.4a33.64,33.64,0,0,0-21.9-5.3c-9.91.82-18.87,4.58-27.67,8.7-14.06,6.57-28,13.44-41.92,20.25-3.69,1.8-7.26,3.84-11.35,6,2.16-7.15,4.19-13.87,6.31-20.86L.07,323.48,0,323c7-3.9,13.77-8.07,20.88-11.65Q38.27,302.56,56,294.46a115.54,115.54,0,0,1,28.63-8.87c6.67-1.13,13.45-1.59,20,.9s9.63,7.48,10.65,14.07C116.08,306.17,116.32,311.91,119.11,317.4ZM71.93,290.57a37.59,37.59,0,0,0-4.48,1.26c-9.89,4.1-19.79,8.22-29.63,12.44-2.9,1.24-5.65,2.84-8.47,4.28a2.78,2.78,0,0,0,2.16-.22c5.57-2.53,11.08-5.18,16.7-7.6,7.92-3.41,15.92-6.65,23.89-10L85.53,287C83.12,286.85,74.76,289,71.93,290.57Zm-48.5,21.58-.25-.58-10.94,5.48.22.43Z"/><path d="M424,323.45l-22.88,2.75,6.35,20.93c-19.34-10.46-38.73-20.42-58.9-28.73a103.1,103.1,0,0,0-18.45-5.79c-8.68-1.78-17.2-.73-24.45,4.05,1-5.68,1.84-11.73,3.05-17.71,1.65-8.19,8.5-13.55,17.14-14,9.68-.56,18.92,1.45,28,4.38,14.24,4.57,27.75,10.88,41,17.83,9.39,4.94,18.6,10.24,27.89,15.39A15,15,0,0,1,424,323.45ZM338.23,286.8c23.09,6,44.14,17.18,65.82,26.75C382.86,302.76,361.68,292,338.23,286.8Z"/><path d="M183.9,97.88,178,101.21c-1.26-1.18-2-2.26-.56-3.53,6.14-5.26,8.78-12.35,10.93-19.85,1.25-4.36,3.27-8.51,5.12-13.2,2.89,4.32,6.72,5.25,10.56,4.21,7.21-2,10.19-5.07,10.83-12.93,8.37-2.3,12.56-10.13,9.07-17,1.84-1.67,3.22-3.47,3.18-6.29,0-2.11-1-3.66-2.51-4.12-1.17-.35-2.89.65-4.2,1.35a10.23,10.23,0,0,0-2.16,2c-.74-2.33-1.42-4.52-2-6.22-2.85-.31-5.05-.16-6.95-.84-2.86-1-4.67.41-6.58,2-.67.53-1.31,1.11-2.19,1.85l1.39.7-4.76,2.12c-1.81-1-2-2.2-1.3-4.25,1.17-3.24,3.88-4.83,6.21-6.93,3.11-2.82,6.74-3.62,10.73-3.27,3.76.33,7.7.2,11.2,1.37a19.53,19.53,0,0,1,10.16,7.09,73.61,73.61,0,0,1,6.53,11.62,37.25,37.25,0,0,1,2.7,12.79c.45,6.94.91,13.92,2.05,20.78,1.06,6.44,2,13,5.13,18.92a72.94,72.94,0,0,0,4.62,6.74c-3.8.77-5-3.35-7.46-5.3.11,2.15.21,4.14.34,6.59-3.37-1.94-2.8-5.18-4.45-7.85-.68,1.34-1.26,2.47-2.23,4.39l-2.62-7.27L237,88.5l-4.43-2.74a9.82,9.82,0,0,1-5.77,6.46,31.68,31.68,0,0,1-1.33,3.88c-.69,1.51-.52,3.79-3.17,3.87-.41,0-.67,1.36-1.2,1.88-.94.92-2.06,2.34-3.07,2.31-.86,0-1.86-1.67-2.48-2.77a20.74,20.74,0,0,1-1.25-3.87l-3.46,3.7c-3.09-2.69-2.19-6.37-2.63-10l-2.72,2.24-2.65-2.94-2.86,3.31-1.83-2.57a29.71,29.71,0,0,1-1.77,4,10,10,0,0,1-2.2,1.91c-.42-.76-.81-1.52-1.25-2.26a10.47,10.47,0,0,0-.78-1,8.78,8.78,0,0,0-.91.92c-1.52,2-3,4-4.56,6-.37.44-1.23.47-1.87.69-.14-.62-.29-1.23-.44-1.85S184,98.44,183.9,97.88Z"/><path d="M184,358.93c-2.79-.92-5.53-2.29-8.39-2.69-8.71-1.23-17.48-2.92-26.21-2.86a181.67,181.67,0,0,0-29.57,3c-17,3-33.81,6.67-50.71,10a25.89,25.89,0,0,1-4.91.16c-1.65,0-2.19-1.15-2.27-2.53a10.31,10.31,0,0,1,.13-3.81c.91-2.67-.25-4.64-1.73-6.55-2.18-2.81-4.43-5.56-6.94-8.71a10.33,10.33,0,0,1,2.52,0c6.93,2.06,13.74.57,20.47-.88,12.07-2.59,24-5.63,36.14-8.09a130.22,130.22,0,0,1,17.73-2.14c10.42-.66,20.85-1.27,31.28-1.31,7.94,0,15.9.75,23.83,1.39a3.69,3.69,0,0,1,2.61,2.42c.53,8.4,5,15.32,8.29,22.66,1.16,2.58,2.52,5.07,3.7,7.7-3.93-3.82-8.88-5.73-13.84-7.59a9.27,9.27,0,0,0-2.2-.27Zm-68.68-6.77c-.54-.56-1.42-1.05-1.57-1.7-.75-3.4-1.32-6.85-2-10.44l-3.17.66a16.22,16.22,0,0,1,1.71,3.25,58.19,58.19,0,0,1,1.22,6.58,11.13,11.13,0,0,1-.17,2.43,8.53,8.53,0,0,1-2.92-.43c-1.8-1-3.43-2.33-5.27-3.62,1.34-2.15,2.65-4.27,4.07-6.54l-3.89.75c1.21,1.79.47,3.72-2.58,6.31-.16-2-.3-3.71-.45-5.57L96,344.92c2.3,1.1,4.58,8.83,3.6,11.4l3.49-.91-1.89-4.63a2.85,2.85,0,0,1,2.1.7c2.94,3.39,6.53,2.85,10.23,1.81a5.09,5.09,0,0,0,1.15-.28c.28-.17.42-.57.62-.86l4.53.3c-.5-1.53-1-2.68-1.25-3.88-.31-1.37-.44-2.79-.68-4.39l-2.43.67c.49,2.37.95,4.48,1.28,6.62C116.81,351.62,115.84,351.92,115.34,352.16Zm15.66-9c1.74,1.8,2.09,5.55.85,7.77l8.84-.42c-.28-1.06-.55-2.06-1-3.71,2.24,1.51,2.47,4.9,5.45,3.51l-3.79-5.42-1.69,1.47V337.5h-3.37a9.49,9.49,0,0,1,1.18,2.69,76.08,76.08,0,0,1,.29,8.13c0,.65-.81,1.29-1.25,1.93-.6-.57-1.61-1.06-1.74-1.73a55.57,55.57,0,0,1-.58-6Zm-5.5,8.33c-2-1.68-1.67-3.91-1.61-6,0-.39.85-1,1.36-1.06s1.37.42,1.45.79c.41,2,1.18,4.06-.18,6.23l3.48-.38c-.32-1.75-.69-3.37-.89-5-.34-2.74-1.85-3.65-4.31-2.51a3.2,3.2,0,0,1-1.36.44c-1.07-.06-2.12-.27-2.87-.37a33.76,33.76,0,0,1,1.23,4.29,29.48,29.48,0,0,1,0,4.11Z"/><path d="M223.88,366.24c1.84-3.72,3.54-6.82,4.93-10.05,2.16-5,4.18-10.07,6.1-15.16.55-1.45.28-3.22.88-4.63.44-1,1.64-2.34,2.61-2.44,5.86-.56,11.74-1,17.62-1.11,9.41-.14,18.85-.36,28.24.2a222.76,222.76,0,0,1,27.14,3.22c12.05,2.24,23.91,5.47,35.92,7.92,6.72,1.37,13.55,2.87,20.47.8a11.05,11.05,0,0,1,2.58,0c-2.15,2.63-4,5-5.94,7.23-2.38,2.8-3.69,5.69-2.64,9.59,1,3.58-1.4,5.6-5,4.85-13.16-2.74-26.27-5.73-39.48-8.12-10.45-1.9-21-3.31-31.57-4.43a115.58,115.58,0,0,0-19.51-.47c-12.39.8-24.55,3-35.83,8.6C228.3,363.24,226.41,364.65,223.88,366.24ZM260,336.72l-4.91.38v.57l1.61.93-3.67,5-.59-.18v-6.08l-4.58.61c2.92,2,4.54,10.14,2.63,12.8l4.19-.46-2-4.79.75-.92c3.62,5.21,8.35,6.22,13.58,4.59-3-4.05-1.45-9.2-3.25-13.54l-2.56.27a17.4,17.4,0,0,1,1.54,3.37c.46,2.19.65,4.43,1,6.64.42,2.78-.49,3.67-3,2.39-2.3-1.15-4.27-3-6.63-4.64Zm56.47,15.91c3.55.76,4.78.3,5.66-1.8s.34-5.22-1.5-6c-2-.81-4.29-1-7-1.58,2.36,2.46,2,10.51-.17,12.94l4.12.62C317.14,355.36,316.82,354.11,316.43,352.63Zm-3.75-.55c-.31-1.47-.66-2.64-.8-3.84-.11-.94.35-2.07,0-2.84-.53-1.07-1.54-2.59-2.44-2.66a16.7,16.7,0,0,1-4.71-.72,4.71,4.71,0,0,0-1.62.09c2.16,2.1,2.1,6.31-.08,8.61l4.53.49c-2.24-1.95-1.14-4.3-1.06-6.38,0-.48,1-1.19,1.66-1.3a2.24,2.24,0,0,1,1.75.86c.94,1.37,0,5.74-1.53,7Zm-36.87-11.81a47.25,47.25,0,0,1,1.19,5.09c.34,2.78,1.2,4.14,3.24,3.73,1.54-.3,2.88.19,4.31.17a3.88,3.88,0,0,0,1-.19,18,18,0,0,1-1.24-3,21.73,21.73,0,0,1-.18-3.34c-.13-2.78-.53-3-2.62-2.34.36,1.66.69,3.2,1,4.75s.17,2.86-1.67,3-1.91-1.24-2-2.59c-.14-1.79-.37-3.58-.55-5.34Zm55.84,15.32a16.24,16.24,0,0,1-.62-2.73,25.26,25.26,0,0,1,.24-2.86c.17-2.63-1.53-4.33-4.08-3.86-.79.15-1.47,1-2.13,1.56-.07.06.39.71.61,1.09l2.42-1.68,2.28,2.37a27.47,27.47,0,0,0-4.57.68c-.77.27-1.86,1.1-1.88,1.7a3,3,0,0,0,1.36,2.41A52.89,52.89,0,0,0,331.65,355.59ZM275.82,349a15.28,15.28,0,0,1-1.25-2.71c-.3-1.23-.08-2.64-.58-3.75a3.91,3.91,0,0,0-2.41-2.14,6,6,0,0,0-3.41,1.12c-.31.19-.05,1.36-.05,2.15,1.19-1.09,1.84-2,2.7-2.31.39-.12,1.21,1.08,2.08,1.92a21.73,21.73,0,0,0-4.11,1.73,2.83,2.83,0,0,0-1.18,2.25c.23.79,1.38,1.94,2,1.87a30.75,30.75,0,0,1,6.21-.15C275.88,349,276,348.84,275.82,349Zm56.7,7a8.56,8.56,0,0,0,2.66.86c1.22-.06,2.89-.13,3.54-.89,1.13-1.33.09-2.67-1.18-3.59-.45-.33-1-.59-1.38-.95-.75-.63-2-1.51-.25-2.09.65-.22,1.8,1.08,2.89,1.8.14-.6.29-1.3.45-2a11.4,11.4,0,0,0-2.91-.89c-.92,0-2.29.17-2.65.76a3.27,3.27,0,0,0,.45,2.75c.53.82,1.69,1.21,2.34,2,.41.48.4,1.33.58,2-.78-.11-1.75,0-2.29-.41s-1-1.48-1.79-2.89C332.77,354,332.66,354.91,332.52,355.94Zm14.57-4.45a8.79,8.79,0,0,0-2.52-.94,17.35,17.35,0,0,0-3.23.56,13.94,13.94,0,0,0,.94,3.2c.39.71,1.48,1,2,1.7a5.17,5.17,0,0,1,.37,2.07c-.71-.14-1.63-.05-2.08-.47a15.42,15.42,0,0,1-1.89-3.07c-.25,1.61-.39,2.57-.53,3.45,1.23.46,2.26,1.14,3.29,1.15s2.6-.4,3-1.12-.24-2.18-.79-3.09-1.53-1.13-2.18-1.81c-.3-.32-.26-1-.37-1.46.57,0,1.31-.26,1.67,0a12,12,0,0,1,1.78,2.16Zm-60.26-2.35a13.86,13.86,0,0,1,2,.21c1.69.42,3.34.47,4-1.45.74-2.1-.82-2.95-2.43-3.74a9.39,9.39,0,0,1-2.1-1.7,3.13,3.13,0,0,1,.55-.84c.86.42,1.68.93,2.52,1.39.12.07.29,0,.61.07v-2.2a8.68,8.68,0,0,0-2.45-.23,17.49,17.49,0,0,0-2.87,1.14,16.85,16.85,0,0,0,1.52,3.17c.42.56,1.53.58,2.05,1.12a6.19,6.19,0,0,1,.9,2.09,6.12,6.12,0,0,1-2.34-.21c-.68-.37-1.09-1.23-1.93-2.26Zm14.39-3.52c.32-2.6-.62-4-2.83-4.38a3.45,3.45,0,0,0-4,3c-.56,2.47.85,5.25,3,5.86q2.87.81,3.67-1.82c-3.31,1.75-4.85.86-4.73-2.92Z"/><path d="M283.33,128.19c-3.05-2.12-3.21-3.08-1-5.43l-5.85-5,1.4-1.54c-.5-1.33-.92-2.48-1.35-3.63-.73-1.93-1.41-3.92-4-4,1.92-3.14,3.48-3.06,10.37.48.49-1.93.49-1.94-2.7-4.2l1.88-2.44h-3.48c-.79-3.35,0-4.17,5.29-5.4-1.5-2.51-6.75-4.74-9.7-4.11-2.19.47-3.17,1.62-3.44,4.08,2.86-.89,4.75,0,4.7,2.41a5.1,5.1,0,0,1-1.41,3.44c-1.07,1-4.39-.52-5.6-2.13a7.7,7.7,0,0,1,1.69-11c5-3.78,10.92-4,16.35-.53.58.36,1.2.68,1.94,1.1.09-1.46.17-2.7.25-4,3.6.36,4.85,3.26,6.5,5.91l2.07-2.6,2.69,6.3,1.39.18c1.33-1.75,2.58-3.37,3.88-5.07,2.4,1.92,3,4.58,3,7.58l1.78-.35c1.36.84.28,5.12-1.8,7.4l1.07,3c3.72-.28,4.55.85,3.16,4.44a25.1,25.1,0,0,1-1.74,3.24l6.37,4.09-5.18,6.38,2.25,1.88c-.49,1.21-1.18,2-1,2.65,2,7-2.48,8.31-7.19,8a28,28,0,0,1-3.23-.71l3.56,7.08c-3.57,1.55-8.88-.19-10.94-4.08-1.36-2.58-2.16-5.45-3.43-8.08a28.62,28.62,0,0,0-3.77-6.26C286.27,125.19,284.27,125.73,283.33,128.19ZM292,109.28c-1.41,11.13.61,21.45,7.58,30.52C292,124.45,292.68,122.13,292,109.28Zm4.73,6.51.64,0q.36-6.27.73-12.54l-.81,0Q297,109.5,296.75,115.79Zm-9.6-3.61-.67.38q2.07,4.66,4.13,9.32l.62-.27Z"/><path d="M121.55,136.6a35.26,35.26,0,0,1-5.72,0c-4.57-.82-5.87-3.1-4.38-7.49.4-1.16.9-2.09-1.39-2.41l3.14-2.5-4.77-6.73,6.45-3.65a34.32,34.32,0,0,1-1.59-3.92c-1-3.24,0-4.26,3.43-3.67l1.31-3c-2-2.15-3.06-4.49-1.55-7.44l2,.45c0-3.09.77-5.76,3.38-7.48l3.57,5.44c3.55,0,1.75-4.61,4.62-5.7l1.85,2.2c1.43-2.65,2.94-5.21,6.52-5.73v3.93c1-.46,2.06-.88,3-1.36,7.08-3.36,15-.88,17.85,5.58,1.7,3.92-1.14,8.91-5.39,9.3-.82.08-2.35-.36-2.41-.74a9.63,9.63,0,0,1,.18-4.44c.19-.59,1.77-.78,2.74-1,.41-.09.91.22,1.55.41-.13-1.75-.67-3.14-2.39-3.85-3.28-1.35-8.1-.06-10.71,2.64a48.44,48.44,0,0,1,5,3.73c.44.41.06,1.7.06,2.24h-3.8L146,104c-1.42,1.2-4,1.38-3.13,4.29,2.84-1.31,5.44-3.52,8.79-2.26.77.29,1.32,1.17,2.44,2.21-3.53-.41-4.06,1.76-4.81,3.75-.39,1-1,2-1.63,3.33.11.16.63.82,1.23,1.6l-5.93,4.73c1.85,2.37,1.69,3.1-1.41,5.33-.75-2.29-3-3-4.71-1.1a35.63,35.63,0,0,0-4.43,6.67c-1.4,2.46-2.33,5.21-3.88,7.55-2,3-6.84,5.06-10.82,3.11Zm12-30.54c0,12.43-2.79,23.93-11.14,33.59C131.28,133.18,136,115.68,133.6,106.06Zm-5.69,7.42c2.14-4.87,1-9.83,0-14.79Zm12.28-3.54c-3.57,2.66-4.88,6.6-5.83,11C136.4,117.13,138.31,113.52,140.19,109.94Zm-22.68,4.75.5-.5,5.86,5.2-1,1C122.1,117.6,120.1,115.88,117.51,114.69Z"/><path d="M210.62,34.28c.35-1,.7-1.91,1-2.88,1.13-3.18-.7-5.6-4-5.13-1.5.22-2.94.93-4.61,1.17,1.43-.68,2.86-1.91,4.28-1.9,2.32,0,4.62.9,6.93,1.35,2.73.53,2.21,2.61,2.2,4.46v2.87l.63.26c1.41-1.18,2.78-2.42,4.26-3.52.95-.71,2.17-2.08,3.18-.4a5.11,5.11,0,0,1,.65,3.86c-.56,1.5-2,2.67-3.17,4.16,1.87,4.46.93,8.79-2.47,12.7-.25.28-.31.77-.6,1a16.53,16.53,0,0,1-3.47,2.15c-.22.08-1.13-1.49-1.66-2.34-.74-1.17-1.41-2.38-2.15-3.63.74-.71,1.81-1.63-.33-2.14-3-.7-6-1.32-9-2-.91-.2-1.81-.47-2.72-.58a18.57,18.57,0,0,0-2.36,0l-.07.8c2.48.45,5,1.31,7.42,1.25,2.85-.08,4.4,1.76,5.77,3.39,4.63,5.47,2.81,13.21-3.22,15.91-2.69,1.21-5.22,2.72-8.48,1.19a6.1,6.1,0,0,1-3.81-5.91c-.09-3.12.1-6.24-.06-9.35a46.93,46.93,0,0,0-1-4.73,4.57,4.57,0,0,1,.27-2.09c.44-1.25,1.62-2.59,1.38-3.65-.39-1.76-2.21-1.91-3.89-1.69-.27,0-.58-.22-1-.41a3.91,3.91,0,0,0,.41-1.06c.05-1,.4-2.51-.08-2.89a4.24,4.24,0,0,0-3.33-.72,9.28,9.28,0,0,0-3.74,2.37c-1.68,1.69-3,.57-4.26-.32-1.53-1.07-1.31-2.58-.21-3.73,2.82-2.94,2.69-6.52,2.66-10.19a48.25,48.25,0,0,1,.71-6.29l.68.08v4.62c2.39-.38,3.41-2,3.78-5a29.21,29.21,0,0,1,1.43-6c1.53,1.89-.45,4.65,2,6.28,4-3.69,3.05-8.93,4-13.5l1,.07c.52,1.9.91,3.86,1.6,5.7A10.12,10.12,0,0,0,199,10.34c.7-1,1.83-1.95,2-3A48.21,48.21,0,0,0,201.25,1c0-.34.39-.66,1.12-1,.17,1.94.3,3.88.53,5.8a4.43,4.43,0,0,0,.67,1.34c.35-.35.85-.63,1-1,.85-1.89,1.6-3.82,2.5-6a8.9,8.9,0,0,1,1.42,7.57,21.1,21.1,0,0,1-9.86,13.7,11,11,0,0,0-5.24,7.3,5.52,5.52,0,0,0,1.26,4c1.21,1.44,3,1.1,4.45,0a11.63,11.63,0,0,0,1.69-1.94c.79,3.54,4.1,4.81,7.59,4,.77-.17,1.53-.37,2.3-.56-3.14,2.27-6.27,2-9.81-.84,2.13,4.22,6.83,4.1,10.1,2.24a4.86,4.86,0,0,0,2.15-5.6Z"/><path d="M69.64,283c-2.27,2.76-6,2.65-8.16-.48-3.57-5.15-3.33-9.75.59-13.25l-4-1.17c2.16-3.66,4.18-7,8.63-8l-3.79-2.6c2.43-3.42,5.85-3,9.4-2.8-.76-1.2-1.39-2.17-2.1-3.28,4.84-1.82,9.27-.76,13.54,1.41a34.59,34.59,0,0,1,11,9.32,3,3,0,0,0,2.13.7c3.07.07,6.2-.36,9.18.13,2.08.34,4,1.88,5.92,2.88l-.26.75-1.67.8a14.74,14.74,0,0,1,2.39,2.19A6.66,6.66,0,0,1,113,272l-1.88.29c.29,2,.63,4.23,1,6.86l-2.6-.72c-.27,4.12-1.94,6.28-5.06,6.58-2,.19-3.5-.17-3.69-2.44l2.6-.5c-.19-.87-.33-1.76-.58-2.61-.39-1.29-.84-2.57-1.33-4.06a6.26,6.26,0,0,1-1.41-.09c-1.93-.46-1.6-1.84-1.09-3.12a6.23,6.23,0,0,0-4-8.23,10.35,10.35,0,0,0-9.65,2.13,14.53,14.53,0,0,0-3.67,5.41c-1.19,3.18-3.63,4.06-6.23,1.75a2.94,2.94,0,0,1-.47-.51c-1.28,1.25-2.52,2.52-3.81,3.72-.33.32-.89.39-1.25.7-1.25,1.08-2.46,2.21-3.68,3.33Z"/><path d="M355.78,283.05l3.58-2.67a23.39,23.39,0,0,0-3.58-3.07c-2.12-1.19-4.21-2.26-4.93-4.67a9.2,9.2,0,0,1-2.46,1.66,7.21,7.21,0,0,1-3.23-.08c-.42-.09-.9-.87-1-1.39-1-6.69-6.67-9.58-13-9.08-3.16.25-5.92,4.71-4.89,7.93,1,3,.56,3.56-2.42,3.82-.67,2.29-1.3,4.48-2,7.06l2.84-.33c-.45,2.36-1,2.86-3.13,2.78-3.5-.13-5.31-2-5.87-6.23l-2.46.37c.41-2.45.78-4.67,1.14-6.8l-1.86-.81,2.67-4.31-1.62-.77c3.61-4.32,8.42-4.63,13.32-3.84,2.12.35,3.46.13,4.9-1.49,3.94-4.4,8.21-8.37,14.18-10,3.65-1,6-1,9.14.36-.5,1-1,1.91-1.62,3.07,3.22,0,6.52-.44,8.89,2.85-1.11.85-2.24,1.7-3.11,2.35a40.25,40.25,0,0,1,4.52,3.31,53.46,53.46,0,0,1,4.05,4.89l-4.59,1.36c2.4,1.56,3.31,3.83,3.18,6.76a10.16,10.16,0,0,1-3,7C360.83,285.8,358.17,285.66,355.78,283.05Z"/><path d="M58.44,453.68a5.81,5.81,0,0,1,1.37-1.18,4.64,4.64,0,0,1,1.67,0H368.84l.43.63a5.76,5.76,0,0,1-1.37,1.17,4.63,4.63,0,0,1-1.67.05H58.86Z"/><path d="M58.75,411.66h2.47q152.39,0,304.76,0c1,0,2.89-.78,2.52,1.82H366q-152.37,0-304.75,0C60.27,413.47,58.32,414.32,58.75,411.66Z"/><path d="M353.56,436a42.48,42.48,0,0,1-6.63,1.59c-4.63.36-8.46-2.55-9-6.36-.88-5.89,2.57-9.16,6.68-10.36,7.62-2.21,13.44,2.39,13.63,10.34.22,9.26-7,15.08-15.18,16.38a2.7,2.7,0,0,1-1.8-.77C347.26,445.11,352.24,442.53,353.56,436Zm.73-5.69c-.69-2.06-1.07-4.31-2.16-6.15a5,5,0,0,0-9,.62,13,13,0,0,0-.61,6.71c.56,3.32,3.34,4.67,7.21,4.15C352.84,435.21,353.82,434,354.29,430.28Z"/><path d="M175.17,431.35H163.72a44.91,44.91,0,0,0,.11,6.88c.14.9,1.58,1.58,2.51,2.44h-9.27c3.26-1.4,3.26-1.4,3.26-4.67s0-6.39,0-9.59c0-2.17.41-4.48-2.76-5h8.85c-5.26,1.45-1.58,5.56-3.11,8.33h11c1.12-4.77.59-6.4-3-8.35h9.46c-3.76.36-3,3.15-3,5.46,0,3,.09,6.08,0,9.11-.1,2.37.33,4.15,3.14,4.64h-9.25C177.45,439.17,173.29,434.54,175.17,431.35Z"/><path d="M245.16,437.58h15.35v3.15H241.14a2.57,2.57,0,0,1,1.4-3.65c2.82-1.46,5.58-3,8.4-4.51s4.37-3.58,4-6.92a4.09,4.09,0,0,0-3.46-3.74,6,6,0,0,0-5.8,1.29c-.34.32.08,1.32-.06,1.95-.22,1-.36,2.3-1,2.81s-2.4.3-2.72-.19a3.9,3.9,0,0,1-.3-3.2c1.22-2.82,6.13-4.87,10-4.21a16,16,0,0,1,5.37,1.74c3.64,2.17,3.83,6.69.33,9.07a48.82,48.82,0,0,1-7,3.44c-1.71.8-3.44,1.55-5.16,2.33Z"/><path d="M88.51,421.4c4.33,0,8.67-.19,13,.09a3.73,3.73,0,0,1,3.74,3.43c.21,2.36-1,3.75-3.07,4.55a17.26,17.26,0,0,0-1.6.79c1.08.4,1.92.67,2.74,1,1.87.79,3.27,2,3.29,4.23s-1.26,3.55-3.11,4.4a8.17,8.17,0,0,1-3,.89c-4,.1-8,0-12.29-.27,3.8-.33,3-3,3-5.15,0-3.2,0-6.4,0-9.6S91.25,422.68,88.51,421.4Zm6.09,9.29c0,2.69-.07,4.84.05,7,0,.61.58,1.67.94,1.69a13.51,13.51,0,0,0,5.21-.26,3.51,3.51,0,0,0,1.83-4.67,6.14,6.14,0,0,0-3.08-3.09C98.21,430.72,96.5,430.9,94.6,430.69Zm.12-.9c2.46.08,5.14.8,6.33-2a5.26,5.26,0,0,0-.23-4.35c-1.49-2.16-3.95-1.16-6.1-1.21Z"/><path d="M192.25,421.35c4.26,0,8.53-.17,12.78.07a4.14,4.14,0,0,1,4.14,3.69c.19,2.24-1.31,3.64-3.37,4.4-.44.16-.84.4-1.53.73a31.48,31.48,0,0,1,3.25,1.24c1.62.83,2.8,1.95,2.8,4.06a4.59,4.59,0,0,1-2.7,4.17,5.44,5.44,0,0,1-2.47.84c-4.32.09-8.64,0-13.25-.14,4.17-.25,3.35-3.16,3.37-5.6,0-2.88-.08-5.76,0-8.64C195.41,423.82,195,422,192.25,421.35Zm6,9.33c0,2.6-.11,4.68.06,6.73.06.73.75,2,1.21,2a12.49,12.49,0,0,0,5.19-.46c2-.83,2.09-3.12,1.53-4.79a5.65,5.65,0,0,0-3-2.84C201.88,430.76,200.2,430.9,198.29,430.68Zm.13-8.43v7.54c2.33,0,4.91.89,6.2-1.7a5.48,5.48,0,0,0,.14-4.36C203.39,421.22,200.76,422.31,198.42,422.25Z"/><path d="M213.73,440.35v-6l.47-.23a19.5,19.5,0,0,1,1.23,1.92,7,7,0,0,0,5.45,4.18c2.3.4,4.53-.75,5.09-2.6s-.68-4-2.94-4.85c-1.56-.6-3.18-1-4.73-1.64-2.89-1.15-4.43-3.24-4.16-5.48.3-2.47,2.79-4.68,5.74-4.89a21.06,21.06,0,0,1,3.77.34c1.29.17,2.58.39,4.16.63v5.54l-.41.27c-.41-.69-.88-1.36-1.23-2.09-1.21-2.59-3.1-3.91-5.56-3.74-1.72.11-3.44.84-3.44,2.62a4.93,4.93,0,0,0,2,3.56c1.75,1.14,3.93,1.62,5.9,2.45,2.94,1.24,4,2.78,3.89,5.34a5.68,5.68,0,0,1-4.47,5,29.71,29.71,0,0,1-6.33.11C216.83,440.79,215.47,440.55,213.73,440.35Z"/><path d="M124.22,421.75v5.56l-.6.3c-.39-.67-.85-1.31-1.18-2-1.33-2.81-3.18-4.3-5.67-3.77a5.4,5.4,0,0,0-3.33,2.46c-.73,1.49.3,3,1.83,3.69,1.94.89,4,1.56,6,2.36,2.89,1.18,4.17,2.87,4,5.25a5.84,5.84,0,0,1-4.6,5.18,22.84,22.84,0,0,1-5.61.14c-1.58-.08-3.14-.43-5-.69v-5.87l.49-.18c.39.69.79,1.37,1.16,2.07,1.54,2.94,4.4,4.47,7.2,4,1.86-.33,3.18-1.25,3.37-3.15a3.8,3.8,0,0,0-2.5-4c-1.3-.58-2.69-1-4-1.45-4.39-1.57-6.15-4-5.11-7s5.25-4.73,9.08-3.63A39.16,39.16,0,0,0,124.22,421.75Z"/><path d="M68.31,440.6c3-.36,3.23-2.38,3.15-4.75-.1-3.19-.1-6.4,0-9.59.08-2.37,0-4.42-3.21-4.72a6.18,6.18,0,0,1,1.37-.32c3.28,0,6.56-.06,9.84,0s5.72,1.83,6,4.08c.37,3-1.54,5.59-4.89,6.37-1.84.43-3.76.53-5.69.78-1.33,4.62-.54,6.94,2.74,8.15Zm6.2-18.41v6.06c0,3.24.18,3.37,3.43,2.63a8.32,8.32,0,0,0,1.56-.49c2.28-1,2.4-3,2.07-5.06a3.61,3.61,0,0,0-3.66-3.13C76.89,422.13,75.86,422.19,74.51,422.19Z"/><path d="M334,440.72H320.3l-.2-.55a6.44,6.44,0,0,1,2-.64c2.29,0,3.05-1,3-3.24-.14-4,0-8,0-11.8-1.76-1-3.86.44-5.41-1.1l9.66-3v14.31c0,4,0,4,3.9,4.93a3.6,3.6,0,0,1,.94.61Z"/><path d="M154.92,436.06a6.37,6.37,0,0,1-3.32,4,11.08,11.08,0,0,1-11.95-.87,10.38,10.38,0,0,1,6.19-18.4,27.13,27.13,0,0,1,4,.41c1.31.16,2.62.35,4.18.56v6.06l-.41.18a10.06,10.06,0,0,1-.9-1.4c-1.62-3.66-3.36-5-6.29-4.86-3.2.17-5.48,2.12-6.37,5.81-.72,3-.78,6,1,8.77a7.34,7.34,0,0,0,12.43.53c.3-.4.64-.77,1-1.16Z"/><path d="M289.93,424h-5.18l-.17-.88a39.45,39.45,0,0,0,4.71-1,44.34,44.34,0,0,0,4.58-2.08v15.19c0,3.4.22,3.63,3.66,4.28a2,2,0,0,1,1.37,1.17H284.84l-.17-.65a21.28,21.28,0,0,1,2.59-.54c1.8-.15,2.74-.88,2.7-2.85C289.87,432.59,289.93,428.53,289.93,424Z"/><path d="M279.77,440.72H266.1l-.2-.63a10.07,10.07,0,0,1,2.22-.57c2.2,0,3.13-1.08,3.09-3.28-.07-4,0-7.93,0-12.15H266l-.21-.92a37.88,37.88,0,0,0,4.4-1c1.54-.52,3-1.32,4.87-2.18v8.85c0,2.32.07,4.63,0,6.94s.76,3.66,3.24,3.72a6.3,6.3,0,0,1,1.63.48Z"/><path d="M222.46,112.59l3.69-.43c-.24,2.25-.47,4.5-.76,7.3,2.16-.56,4.83-.59,5.13-1.46.63-1.77,0-4-.16-6.23l4.31-.57c-1.65,1.88-1.87,12.13-.3,14.65l-4,.57c.21-2.18.42-4.38.65-6.81l-5.47.33c.14,2.37.26,4.57.4,6.9H222.6A89.4,89.4,0,0,0,222.46,112.59Z"/><path d="M193.8,41a63.63,63.63,0,0,1-7.72,1.94c-5.41.71-9.94,2.67-12.85,7.55-.14.24-.47.37-1,.75A14.86,14.86,0,0,1,175.39,43a22.85,22.85,0,0,1,3.54-3.55c.55-.48,1.48-1.1,2-.94,2.29.69,3.79-.34,5.23-1.86.27-.28.8-.34,1.57-.06l-5.2,3.79c3.32,1.49,4.23.87,6.32-3.29C188.64,41.27,191.84,39.85,193.8,41Z"/><path d="M236.15,118.4c0-4.19,2.14-7.37,5.69-8.47a4.64,4.64,0,0,1,5.85,2.38c1.83,3.66.07,9.36-3.51,11.37C239.93,126.07,236.16,123.58,236.15,118.4Zm2.64-1.46c.12,1.62,0,2.69.33,3.49.57,1.16,1.34,2.68,2.38,3a2.57,2.57,0,0,0,3.28-2.3,38.82,38.82,0,0,0,.43-7.91c-.05-.89-1.32-2.43-2-2.42a4.28,4.28,0,0,0-3.21,1.74A15.47,15.47,0,0,0,238.79,116.94Z"/><path d="M173.58,106.78a73.17,73.17,0,0,1,7.86,2.13c.69.26.87,1.86,1.34,3l-5-3.62-.68.57a35.85,35.85,0,0,0,0,3.74c.08.77.34,2,.83,2.14s1.58-.32,2.41-.54v3.26l-2.8-2.1-.54.37c.67,2-1.21,4.43,1.29,6,1.58,1,3.21.87,4.44-1.52v3.59l-9.73-2.59C174.52,119.92,174.79,109.26,173.58,106.78Z"/><path d="M162.15,102.67a64.79,64.79,0,0,1,6.87,2.79,5,5,0,0,1,2.35,2.78,5.28,5.28,0,0,1-.48,3.94c-.5.71-2.23.6-3.42.75a6.42,6.42,0,0,1-1.83-.51c.12,2.26.22,4.22.33,6.28l-3.7-1.37C163.46,115.79,163.56,105.56,162.15,102.67Zm3.53,2.33c0,1.92-.11,3.58.06,5.22.06.59.86,1.59,1.21,1.54a2.66,2.66,0,0,0,1.92-1.23C169.78,108.09,168.66,106.07,165.68,105Z"/><path d="M187.77,48l4.66-1.74c1.08,1.14,1.24,2.55,1,4.41-.58,3.92-.71,7.91-1,11.59C187.92,58.94,188.49,53.23,187.77,48Z"/><path d="M191.59,125.51l-3.63-.62V110.73l-3.43,1.76v-2.84l10.26,1.78v2.91l-3-2.93-.71.43C191.3,116.31,190.53,120.83,191.59,125.51Z"/><path d="M196.82,111.64l4.39.57-.35.4c-1.22,1.5-1,11.29.27,12.62a2.73,2.73,0,0,0,4.3-.45c1.07-1.72.67-10.27-.64-12.11h3a19.2,19.2,0,0,0-1.11,3.64c-.22,2.13-.15,4.3-.21,6.45a3.9,3.9,0,0,1-3.48,4.15c-2,.36-4.62-1-5.09-3.11a52.25,52.25,0,0,1-.62-7.32C197.16,114.9,197,113.33,196.82,111.64Z"/><path d="M219.84,113v4.3c-.65-1-1-1.7-1.53-2.33-1.65-2.08-4.74-1.93-5.3.58a22.76,22.76,0,0,0-.06,8.82c.42,2.31,2.7,2.65,5.51,1.42-2.13,2.44-5.67,2.13-7.68-.67a8.66,8.66,0,0,1-.24-9.47c1.9-2.74,4.59-3.48,7.78-2.67A6.84,6.84,0,0,0,219.84,113Z"/><path d="M249.18,108.22l3.68-1c.79,2.88,1,6,2.49,8.31,1.23,1.91.47,3.14.1,4.63-.14.53-.91.9-1.47,1.42C251.94,117,251.89,112.21,249.18,108.22Z"/><path d="M257.07,113.38c.69-2.84.3-6.06,2.75-9,1.09,3.35,1.6,6.31,3,8.79s-.29,3.84-.35,5.74l-1,.1-3-8.44-.49-.06Z"/><path d="M302.52,432.13c0-.86-.07-1.63-.12-2.57h12.34v2.57Z"/><path d="M176.4,49.12c4.87-4.87,11.61-3.85,16.82-6.84l.51.93c-1.61,1-3.11,2.44-4.87,3-3.76,1.25-7.67,2.08-11.52,3.07C177.21,49.35,177.05,49.26,176.4,49.12Z"/><path d="M348.13,322.22l-8.28,17-.61-.3,8.28-17.17Z"/><path d="M91.68,335.51q-3.2-8.25-6.38-16.51l.68-.26q3.21,8.25,6.4,16.5Z"/><path d="M338.57,318.61q-3.17,8.17-6.32,16.34l-.7-.26q3.18-8.16,6.34-16.32Z"/><path d="M83.57,320.18q3.44,8,6.89,15.95l-.71.3q-3.41-7.94-6.82-15.88Z"/><path d="M94.05,316.44q3.24,8.16,6.46,16.32l-.71.28-6.39-16.35Z"/><path d="M90.32,318.79q3.14,8.22,6.28,16.43l-.59.23-6.43-16.38Z"/><path d="M87.93,318.32l5.89,15.48-.7.26-5.88-15.42Z"/><path d="M331.9,318.6q-3,7.72-5.95,15.45l-.65-.25q2.93-7.77,5.86-15.53Z"/><path d="M334.29,318.57,327.9,335l-.63-.25q3.15-8.2,6.29-16.42Z"/><path d="M333.46,335.71l6.87-16,.63.27q-3.37,8-6.76,15.95Z"/><path d="M81.17,321.21l6.93,16-.65.28q-3.49-8-7-15.93Z"/><path d="M322.94,333.64l6.34-16.33.71.28L323.54,334Z"/><path d="M335.85,336.6q3.48-8,6.95-15.93l.63.27-6.87,16Z"/><path d="M345.85,322.39q-3.71,7.73-7.43,15.45l-.64-.29,7.41-15.48Z"/><path d="M85.38,338.12q-3.63-7.56-7.27-15.14l.65-.32q3.64,7.57,7.3,15.14Z"/><path d="M336.63,318.06l-5.82,15.53-.73-.28q3-7.74,5.9-15.49Z"/><path d="M184,372l-.81,2h0a27.21,27.21,0,0,1,.2-4.05,58.84,58.84,0,0,1,2.79-9.7c-.29,2-.57,3.94-.86,5.9Z"/><path d="M101.71,331.62q-2.92-7.69-5.86-15.4l.65-.25q3,7.69,5.92,15.38Z"/><path d="M81.14,338.43,74,323.51l.65-.31,7.18,14.89Z"/><path d="M98.91,315.94q2.75,7.5,5.51,15l-.72.26q-2.7-7.47-5.42-14.94Z"/><path d="M101.3,315.43l5.38,15.46-.64.23q-2.72-7.74-5.41-15.46Z"/><path d="M76.77,323.08l6.46,13-.78.39-6.3-13.11Z"/><path d="M68.7,326.83q3.42,7.26,6.83,14.54l-.64.3-6.83-14.54Z"/><path d="M321.27,315.27q-2.68,7.23-5.38,14.47l-.67-.25L320.58,315Z"/><path d="M341.24,339.67q3.38-7.11,6.76-14.21l.67.32q-3.39,7.1-6.8,14.19Z"/><path d="M353.45,325.89,347,339.45l-.67-.31q3.22-6.78,6.43-13.55Z"/><path d="M92.72,318.79l5.37,14.1-.68.26L92,319Z"/><path d="M108,330.2l-5.43-14.52.71-.27L108.64,330Z"/><path d="M325.13,317.13l-4.95,13.57-.72-.26,5-13.52Z"/><path d="M327.52,317.14q-2.67,7-5.35,14l-.66-.25,5.3-13.94Z"/><path d="M71.47,326.86q3.25,6.81,6.49,13.62l-.64.3q-3.24-6.81-6.5-13.61Z"/><path d="M344,339.58l5.88-12.83.76.35q-3,6.34-6,12.71Z"/><path d="M322.79,316.61l-5,14.07-.62-.21q2.43-7.05,4.88-14.11Z"/><path d="M184,372l1.32-5.89q.79-2.64,1.6-5.3h.23l-.43,4.59c-.31,1.34-.61,2.68-.92,4s-.79,2.5-1.26,4Z"/><path d="M73,325.08l6,12.66-.76.35-5.85-12.76Z"/><path d="M357.24,329.13,351,342.55l-.63-.29,6.26-13.47Z"/><path d="M244.07,373.07a27.07,27.07,0,0,1-1.64-3.55c-.87-2.89-1.59-5.84-2.36-8.76l.07.07v-1.74l.65-.13q1.61,7.08,3.2,14.17Z"/><path d="M111.83,327.68q-2.72-6.71-5.41-13.4l.6-.24q2.73,6.68,5.48,13.34Z"/><path d="M207.57,33.66c1.94-3,1.73-3.71-1.41-5.76,2-.27,4-.15,4.33,1.86C210.73,31.18,209.59,32.73,207.57,33.66Z"/><path d="M313.33,327.92l4.9-13.45.64.23q-2.44,6.81-4.88,13.6Z"/><path d="M109.93,328.76,105,315.29l.65-.23q2.45,6.72,4.91,13.46Z"/><path d="M182.18,358.87Q180.61,365.43,179,372l-.79-.19q1.6-6.56,3.2-13.1Z"/><path d="M352.56,342.32l6-12,.7.34-6.05,12.12Z"/><path d="M184,358.87c-.81,3.24-1.61,6.49-2.44,9.73-.33,1.29-.72,2.56-1.08,3.84l-.72-.19c1.16-4.35,2.31-8.71,3.51-13.06,0-.15.52-.18.8-.26Z"/><path d="M70,341.85q-2.9-5.93-5.78-11.86l.61-.3q2.94,5.91,5.89,11.81Z"/><path d="M72,340.84l-5.94-12.49.65-.31q3,6.21,5.92,12.41Z"/><path d="M348.82,339.9q3-6.24,6-12.49l.61.28q-3,6.33-6,12.67Z"/><path d="M181,372.87q1.62-6.63,3.22-13.27l.75.18q-1.65,6.68-3.29,13.34Z"/><path d="M311.36,327.09,316.24,315l.71.29L312,327.35Z"/><path d="M176.64,364.61l-2.07,5.88-.52-.14q1.6-6,3.22-12.09l.36.07-.51,4.38Z"/><path d="M247.29,365.1c.27,1.86.53,3.72.8,5.58l-.49.12q-1.29-5.3-2.57-10.59l.41-.1,1,1.2Z"/><path d="M242.42,359.32l3,12-.8.21-3-12Z"/><path d="M176.74,370.84q1.66-6.21,3.31-12.42l.61.15q-1.56,6.26-3.11,12.52Z"/><path d="M243.91,359.3q1.54,5.91,3.1,11.81l-.72.19-3.12-11.8Z"/><path d="M113.31,325.9q-2-5.46-4-10.92l.62-.23q2.07,5.38,4.13,10.78Z"/><path d="M61.49,332.3l4.85,10.62-.68.31-4.84-10.71Z"/><path d="M360.62,332l-4.86,11.06-.64-.27,4.8-11Z"/><path d="M247.29,365.1l-.88-3.79-.18-1.86.5-.12,3,11.13-.54.18C248.54,368.79,247.91,367,247.29,365.1Z"/><path d="M240.07,360.76c.53,2.68,1.07,5.37,1.61,8.05.14.75.26,1.5.38,2.24l-.65.14c-.89-3.85-1.77-7.71-2.75-12l1.48,1.62Z"/><path d="M234.9,368.64l-1.12-6.49.58-.12,2.49,11-.52.14-1.5-4.59Z"/><path d="M185.76,369.39c.31-1.34.61-2.68.92-4s.85-2.44,1.27-3.65l.5.1q-1.06,5-2.12,10l-.57,0Z"/><path d="M68.25,343.42q-2.31-5-4.63-10.07l.75-.33q2.19,5.09,4.4,10.18Z"/><path d="M362.11,334.34l-4.49,9.74-.57-.24,4.32-9.92Z"/><path d="M196.08,374.28c.52-2.32,1-4.64,1.57-7l.42.07-.33,3.06.75-1.13.39.06-.63,4.39h-.36l-.3-1.92-1,2.6Z"/><path d="M309.88,325q1.83-4.8,3.64-9.61l.66.25-3.63,9.79Z"/><path d="M237.57,367.83c.18,1.47.37,2.95.56,4.43l-.56.1q-1.24-5.58-2.5-11.15l.54-.14c.67,2.27,1.33,4.54,2,6.81Z"/><path d="M176.64,364.61l.48-1.9,1.14-3,.48.12q-1.32,5.59-2.66,11.2l-.56-.11Q176.09,367.75,176.64,364.61Z"/><path d="M60,333.68l3.94,9.7-.64.26-4-9.61Z"/><path d="M112.07,315q1.91,4.59,3.8,9.19l-.68.29q-1.91-4.58-3.8-9.14Z"/><path d="M307.55,325q2-4.8,3.94-9.61l.69.28-4.05,9.53Z"/><path d="M173,370.57q1.22-5.74,2.42-11.5l1.08.29q-1.78,5.56-3.54,11.14Z"/><path d="M359.79,343.27q2.08-5,4.16-10.06l.55.22-4,10.14Z"/><path d="M238.64,366.64,238,362l.58-.11,2.46,10.8-.48.13-2-6.28Z"/><path d="M187,372.57l2.1-9.85.75.16q-1.06,4.9-2.14,9.83Z"/><path d="M250.31,369.75q-1.4-4.92-2.78-9.84l.72-.21,2.79,9.9Z"/><path d="M234.83,368.57l.36,4.6-.46.07-2.13-9.9.44-.1,1.85,5.4S234.83,368.57,234.83,368.57Z"/><path d="M238.58,366.57l.56,4.81-.34.07-1.23-3.62,0,.05c-.37-2.45-.73-4.9-1.1-7.34l.29-.06q.91,3.07,1.84,6.16Z"/><path d="M251.71,369.22,248.92,360l.67-.2,2.85,9.25Z"/><path d="M188.12,373.64l2.3-10.18.7.16c-.73,3.17-1.44,6.34-2.19,9.5-.05.24-.31.44-.48.65Z"/><path d="M192.64,370.92l-1.36,3.6-.3-.06,1.5-8.56.44.06v3.2C192.83,369.75,192.74,370.33,192.64,370.92Z"/><path d="M306.14,323.54c1.09-2.66,2.17-5.33,3.26-8l.58.23-3.26,8.16Z"/><path d="M365.9,336.4q-1.5,3.62-3,7.23l-.63-.26q1.49-3.64,3-7.29Z"/><path d="M192.64,370.92c.1-.59.19-1.17.28-1.76.41-1.17.82-2.34,1.24-3.51l.42.08q-.75,3.88-1.49,7.79l-.56-.06Z"/><path d="M233.27,373.59,231.64,365l.69-.13c.55,2.88,1.1,5.75,1.66,8.63Z"/><path d="M174.46,360.83c-.69,2.49-1.39,5-2.09,7.48l-.81-.22,2.25-7.45Z"/><path d="M189.89,372.64l1.67-8.56.64.12-1.61,8.57Z"/><path d="M230.87,369.78l.47,4.19-.51.1c-.56-2.65-1.13-5.3-1.69-7.95l.53-.13,1.25,3.86Z"/><path d="M204.38,33.48l-2.76-2,3-3.18.56.35C202.94,30,203.16,31.53,204.38,33.48Z"/><path d="M230.92,369.85,230.5,365l.44-.07c.54,2.77,1.09,5.55,1.64,8.32l-.5.12-1.21-3.57Z"/><path d="M116.67,323l-3-7,.7-.3,2.94,7.1Z"/><path d="M367.44,337.62q-1.17,3.5-2.33,7l-.61-.2,2.33-7Z"/><path d="M228,373.94c-.46-2.44-.91-4.88-1.37-7.33l.56-.12q.78,3.67,1.57,7.35Z"/><path class="cls-1" d="M135.5,155.72c7.94-8,15.89-16.13,23.93-24.15a2.52,2.52,0,0,1,2.21-.18A240.83,240.83,0,0,0,193,142.6c14.21,3.88,28.28,3.23,42.2-.95,9.37-2.81,18.56-6.24,27.81-9.49a2.35,2.35,0,0,1,2.89.72c7.06,7.29,14.19,14.51,21.21,21.83a2.51,2.51,0,0,1,.32,2.35c-7.57,12.45-8.67,26-6.92,40.05s6.5,27,12.8,39.57c2.51,5,5.27,10,6.84,15.38,3.59,12.22.48,23.28-7.64,32.9-8.43,10-19.19,16.67-31.37,21.05-13.18,4.74-26.24,9.76-38,17.55-4.13,2.74-7.73,6.27-11.62,9.47-7.18-8.62-17.4-14-28-18.67-10.39-4.54-21.08-8.39-31.35-13.17a58.32,58.32,0,0,1-22.32-17.95c-9.31-12.47-9.74-25.76-3.24-39.56,3.35-7.11,7.19-14,10.07-21.31,5.56-14,8.46-28.6,6.89-43.82A55.43,55.43,0,0,0,135.5,155.72Zm5.12,1.87c1.28,2.75,2.86,5.7,4.06,8.8,4.15,10.72,4,21.81,2.16,32.9a119.68,119.68,0,0,1-12.86,37,86.13,86.13,0,0,0-5.93,12.93A32.6,32.6,0,0,0,132,279a54.34,54.34,0,0,0,21.06,18.3c7,3.52,14.42,6.15,21.66,9.17,13.53,5.63,27.08,11.23,36.88,22.16,3.2-2.71,6.23-5.68,9.64-8.1,10-7.09,21.19-11.93,32.72-15.89,12.31-4.22,23.59-10,32.71-19.5,7.85-8.15,12-17.69,10.57-29.19a43.77,43.77,0,0,0-5.78-16.53,124.52,124.52,0,0,1-14.25-37.94,70.82,70.82,0,0,1-.83-25.35,48.5,48.5,0,0,1,7-18.77l-19.82-20.1a2.49,2.49,0,0,0-3.08-.65c-9,3.18-18.07,6.43-27.25,9.17-12.55,3.76-25.27,4.48-38.09,1.08a194.83,194.83,0,0,1-30.92-11,2.9,2.9,0,0,0-2.63.26C154.59,143.19,147.65,150.37,140.62,157.59Z"/><path d="M140.62,157.59c7-7.22,14-14.4,21-21.48a2.9,2.9,0,0,1,2.63-.26,194.83,194.83,0,0,0,30.92,11c12.82,3.4,25.54,2.68,38.09-1.08,9.18-2.74,18.21-6,27.25-9.17a2.49,2.49,0,0,1,3.08.65l19.82,20.1a48.5,48.5,0,0,0-7,18.77,70.82,70.82,0,0,0,.83,25.35,124.52,124.52,0,0,0,14.25,37.94A43.77,43.77,0,0,1,297.28,256c1.38,11.5-2.72,21-10.57,29.19-9.12,9.48-20.4,15.28-32.71,19.5-11.53,4-22.7,8.8-32.72,15.89-3.41,2.42-6.44,5.39-9.64,8.1-9.8-10.93-23.35-16.53-36.88-22.16-7.24-3-14.68-5.65-21.66-9.17A54.34,54.34,0,0,1,132,279a32.6,32.6,0,0,1-4-29.84A86.13,86.13,0,0,1,134,236.25a119.68,119.68,0,0,0,12.86-37c1.8-11.09,2-22.18-2.16-32.9C143.48,163.29,141.9,160.34,140.62,157.59Zm70-6.62c-5-.77-9.81-1.28-14.53-2.3A158.84,158.84,0,0,1,165,138.09c-1.07-.48-2-1-3.17.19-6.05,6.17-12.19,12.24-18.36,18.29a1.93,1.93,0,0,0-.4,2.69c1.18,2.25,2.35,4.53,3.31,6.89a41.83,41.83,0,0,1,3,15.63c0,4.94.75,10.06-.3,14.77-2.16,9.68-5.3,19.14-8,28.69-.23.8-.53,1.57-.82,2.43h70.39Zm70.88,6.7c-6.27-6.25-12.36-12.36-18.53-18.38a2.71,2.71,0,0,0-2.28-.51c-3.43,1-6.78,2.32-10.21,3.38-7.35,2.27-14.67,4.73-22.14,6.57C223.29,150,218,150.28,212.82,151v76.7h70.82c-.3-.86-.56-1.59-.81-2.33-1.93-5.64-4.1-11.21-5.72-16.93a84.05,84.05,0,0,1-3-28.63,48.17,48.17,0,0,1,.78-5.59A46.27,46.27,0,0,1,281.5,157.67ZM212.71,325.23c.78-.61,1.22-.92,1.63-1.28,9-7.9,19.53-13.15,30.54-17.48,8.22-3.24,16.49-6.29,24.32-10.46a59.73,59.73,0,0,0,21.42-18.69c6.21-8.89,6.77-18.65,3.23-28.49-2.14-6-5.56-11.45-8.34-17.18a3.12,3.12,0,0,0-3.29-2c-22.39.07-44.78,0-67.17,0h-2.34Zm-2.05-95.53H178.08c-12.31,0-24.63,0-36.94.05a3.26,3.26,0,0,0-2.5,1.06c-3,5.85-6.23,11.66-8.78,17.73-4,9.45-3,18.87,2.29,27.51,6.8,11.12,16.95,18.68,28.87,23.37,11,4.33,22.1,8.61,32.72,13.88,4,2,7.68,4.74,11.41,7.28,1.85,1.26,3.48,2.83,5.51,4.51Z"/><path d="M202.72,387.92c.59,2.54.19,3.79-1.64,3.95-.61.05-1.29-.57-1.93-.89Z"/><path d="M320.76,348.84c-.07.4,0,1.17-.34,1.61a10.84,10.84,0,0,1-2,1.63,7.75,7.75,0,0,1-1.5-2.15,7.51,7.51,0,0,1,.17-2.6c.11-1,0-2.45,1.49-2.08.84.21,1.47,1.37,2.1,2.18C320.86,347.69,320.72,348.2,320.76,348.84Z"/><path d="M329.3,350.87c.09,1.62.2,3.28-2,3-.67-.09-1.84-1.36-1.71-1.69C326.26,350.43,327.77,350.5,329.3,350.87Z"/><path d="M272.6,344.41c.09,1.76.89,3.52-1.45,3.79-.58.07-1.73-.55-1.79-1C269.07,345,271,345,272.6,344.41Z"/><path d="M299.47,344.49l-3.16-.2-.35-.68c.62-.47,1.28-1.38,1.85-1.32.75.07,1.42.9,2.13,1.4Z"/><path class="cls-1" d="M210.62,151v76.7H140.23c.29-.86.59-1.63.82-2.43,2.74-9.55,5.88-19,8-28.69,1-4.71.31-9.83.3-14.77a41.83,41.83,0,0,0-3-15.63c-1-2.36-2.13-4.64-3.31-6.89a1.93,1.93,0,0,1,.4-2.69c6.17-6,12.31-12.12,18.36-18.29,1.19-1.22,2.1-.67,3.17-.19a158.84,158.84,0,0,0,31.05,10.58C200.81,149.69,205.64,150.2,210.62,151Zm-34.94,62.67,1.14.19c1.3-1.39,2.64-2.75,3.9-4.18,4.82-5.45,5.14-12,1-18a37.19,37.19,0,0,0-11.54-10.3,16.89,16.89,0,0,1-7-7.63c-.56-1.27-.93-2.62-1.56-4.45-.72,4.78.51,8.38,3.48,11.37,2.09,2.09,4.33,4,6.43,6.11a12.74,12.74,0,0,1,3.88,11.78,29,29,0,0,0-.58,5.71C174.92,207.39,175.37,210.51,175.68,213.64Zm22.43-43.28c-1.76,6.31-5.76,9.89-10.75,12.59a22,22,0,0,0-2.56,1.77c-3.56,2.63-3.56,2.63-1.16,6.32.28.43.61.83.65.88,2.24-2.55,4.39-5.07,6.63-7.5,1.63-1.76,3.51-3.29,5-5.12A9.92,9.92,0,0,0,198.11,170.36Zm-9.08-.47c6.9-.44,10.85-5.28,10.42-12.12-6.55-.67-12.38,4-11.9,9.94,1.77-4.32,4.61-6.92,9.23-7.43C196.45,164.76,194.53,167.17,189,169.89ZM180,153.16c2.92,3.94,3.33,7.9.92,12.55a10.4,10.4,0,0,0-1.11-16.16c-5.06,5.45-5.61,11.77-1.07,15.71C176.69,160.88,176.93,157,180,153.16Zm-9.59,16.47c-5.27-2.68-7.65-5.88-7-9.44,4.35.62,7.22,3.13,8.94,7.15a9.91,9.91,0,0,0-11.91-9.52C160,165.48,165.53,170.17,170.39,169.63Zm13.26,9.53c.06-2.57-1.45-4.54-3.53-4.6s-3.79,1.83-3.85,4.33,1.59,4.59,3.56,4.66S183.59,181.6,183.65,179.16Zm1.23,29.69-.62-.18c-5.37,5.9-6.76,10.63-3.73,15.13C182.09,218.45,183.49,213.65,184.88,208.85Z"/><path class="cls-1" d="M281.5,157.67a46.27,46.27,0,0,0-6.6,16.56,48.17,48.17,0,0,0-.78,5.59,84.05,84.05,0,0,0,3,28.63c1.62,5.72,3.79,11.29,5.72,16.93.25.74.51,1.47.81,2.33H212.82V151c5.2-.73,10.47-1,15.52-2.28,7.47-1.84,14.79-4.3,22.14-6.57,3.43-1.06,6.78-2.35,10.21-3.38a2.71,2.71,0,0,1,2.28.51C269.14,145.31,275.23,151.42,281.5,157.67Zm-33.87,8.41a5.84,5.84,0,0,0,4.17,5.27,5.52,5.52,0,0,0,6.3-2.28c1.84-2.49,3.58-5.07,5.3-7.65a6,6,0,0,0-.06-6.32,6.21,6.21,0,0,0-6.67-2.07C254.2,153.91,247.62,163.4,247.63,166.08Zm-11.48,52.44c4.11-1.05,8-1.92,11.76-3.13.69-.22,1.37-1.89,1.28-2.8a63.32,63.32,0,0,0-1.43-6.75c-.43-1.94-1.59-2.6-3.5-2.15-2.93.7-5.85,1.51-8.82,2-2.48.39-4.27,2-4.38,4-.12,2.29.86,4.77,1.88,6.93C233.39,217.56,235.09,217.93,236.15,218.52Zm32.56-39.24.43-.64-4.49-4.19-.49.41c.19.59.37,1.19.66,2.13l-2.33-1.39L252,186.79l1.66,2L246.49,198l.46.33,8.55-7.81,2.13,1.62c3.53-3.77,7-7.46,10.51-11.19l-1.72-2.53Zm-39.35-1.63,8-5c-2.1-1.69-4.05-2.13-6-.74A4.64,4.64,0,0,0,229.36,177.65Zm1,1.58c2.37,1.94,4.55,1.93,6.49.38a4.22,4.22,0,0,0,1.36-5.2Zm3.16,7.19-5,8c2.56.51,4.56.1,5.68-2S235,188.5,233.5,186.42Zm-4.8-3.88-9.29-.92c.88,2.52,2.19,4.15,4.58,4.31C226.11,186.08,227.78,185.11,228.7,182.54Zm-1.86,11c1.74-2.79,3.27-5.24,4.94-7.9-2.43-.38-4.37-.27-5.56,1.72S225.2,191.26,226.84,193.54Zm-7.08-13.73,9.2.63c-.61-2.83-2.3-3.92-4.67-4C222.17,176.37,220.75,177.5,219.76,179.81Zm7.46,33.51c-.7,1-1.4,1.53-1.45,2.15,0,.41.95,1.34,1.29,1.26a2.21,2.21,0,0,0,1.39-1.42C228.55,214.87,227.84,214.26,227.22,213.32Zm3.21,1.75c-.66.75-1.47,1.3-1.39,1.66.13.61.82,1.1,1.27,1.64.51-.5,1.25-.93,1.43-1.52C231.84,216.49,231.05,215.87,230.43,215.07Zm-4.7,3.07c-.64,1.14-1.22,1.74-1.22,2.34,0,.38.87,1.07,1.34,1.06s1.23-.78,1.22-1.18C227,219.78,226.42,219.22,225.73,218.14Z"/><path class="cls-1" d="M212.71,325.23V229.7h2.34c22.39,0,44.78,0,67.17,0a3.12,3.12,0,0,1,3.29,2c2.78,5.73,6.2,11.23,8.34,17.18,3.54,9.84,3,19.6-3.23,28.49A59.73,59.73,0,0,1,269.2,296c-7.83,4.17-16.1,7.22-24.32,10.46-11,4.33-21.55,9.58-30.54,17.48C213.93,324.31,213.49,324.62,212.71,325.23Zm46.36-78-1.81-.42c.1-.7.43-1.56.21-1.73a3,3,0,0,0-1.8-.46c-.78,0-1.56.38-2.33.37-4-.08-8-.24-11.88-.36-.24.69-.6,1.69-1,2.72,4.18,2.13,13,2.13,18.59-.12-.59,1.4.37,1.44,1.31,1.49l5.27.32c-3.28,4-10.83,6-18.43,5.44l9.93-1.55-.07-.51-4,.45-.05-.34,4.55-1.33-.07-.35-2.38.14,0-.27,1.39-.55,0-.73c-2.73,0-5.47.11-8.2,0-2.29-.13-4.55-.62-6.84-.83-3.13-.29-6.27-.47-9.41-.69l-.12.93c5.31,6.94,13,7,20.66,6.43,5.49-.4,10.86-1.41,14.57-6.52Zm-22.33,17.1-.12-.11c-.35-.13-.72-.42-1-.38a19.15,19.15,0,0,0-10.39,4.45,3.3,3.3,0,0,0-.95,2.47,47.25,47.25,0,0,0,1.28,6.79c2.58,9.66,4.08,11.05,13.92,13.1,1.85.39,3.92.21,5.55,1,3,1.43,5.67,1.75,8.53,0a5,5,0,0,1,1.31-.4c4.4-1.19,8.84-2.27,13.19-3.62a4.33,4.33,0,0,0,2.52-2.35c1.49-4.53,2.76-9.14,4-13.76a3.24,3.24,0,0,0-.44-2.68,19.18,19.18,0,0,0-11.64-5.06l3.84,7.49-5.77,2.25,4.43,3.55-.17.12-6.45-3.44,6.78-2.75c-1.27-3.81-3-7.05-6.32-9.19-.65-.42-1.76-.13-2.67-.17l-5.22,3.75,4.23,4.81c.75-2.84,1.86-5.56,1-8.56.33.83,1,1.68.93,2.48a97.13,97.13,0,0,1-1.39,12.55c-1,4.67-2.64,9.2-4,13.78l-.71-.2c.92-3.61,1.73-7.25,2.8-10.82a7.23,7.23,0,0,0-.55-5.45c-.52-1.15-.25-2.66-.29-4,0-.58.32-1.33.07-1.73-1.44-2.3-4-2.62-6.16-.87-.49.38-.95.81-1.38,1.19,1.08,3.34,1,3.31-.27,6.64a6.62,6.62,0,0,0-.25,3.61c1,4.32,2.17,8.59,3.28,12.88-4-7.74-7.94-24.08-6.22-29,.49,2.37,1,4.86,1.55,7.53l4.41-4.88-7-4.22Zm13.38-26.56c-1.86-1.68-4.46-1.79-7.16.41-1.83,1.5-1.44,3.3-1.16,5.18a23,23,0,0,0,15.11-.34c-.33-4.07-1.57-6.45-3.55-6.49C252.48,236.52,251.58,237.19,250.12,237.78Z"/><path class="cls-1" d="M210.66,229.7v95.39c-2-1.68-3.66-3.25-5.51-4.51-3.73-2.54-7.39-5.29-11.41-7.28-10.62-5.27-21.67-9.55-32.72-13.88-11.92-4.69-22.07-12.25-28.87-23.37-5.29-8.64-6.24-18.06-2.29-27.51,2.55-6.07,5.73-11.88,8.78-17.73a3.26,3.26,0,0,1,2.5-1.06c12.31-.07,24.63-.05,36.94-.05h32.58Zm-62,25-.41.86a36.76,36.76,0,0,1,5.91,23.1l6.59-.51c-.67-2.46.14-3.66,2.37-3.6.6-2.86.6-2.86,2.91-2.27-.46.68-.93,1.31-1.32,2-4.44,7.56-1.11,16.84,7.13,18.46,5.62,1.1,11.54,1.1,16.91-1.6s6.08-5,5.56-9.93a11.12,11.12,0,0,0-1.66-4.95c-2.2-3.18-4.79-6.11-7.16-9.18-.53-.69-1.3-1.74-1.1-2.32a19.05,19.05,0,0,1,2.53-4.91c.93-1.3,1.39-2.43.64-3.94a2.5,2.5,0,0,1-.07-1.58c.75-3,.48-3.65-2.7-4.46-1.79-.46-2-1.31-1.17-2.71,1.24-2,2.54-3.95,4.06-6.32-2.24-.22-4.41-1-6.16-.43s-2.87,1.31-4.52.18c-.28-.19-1.32.32-1.69.77a1.54,1.54,0,0,1-2.61.23c-1.32-1.18-2.54-1-3.79.27l2.88,4.55.05.77c-4.4-1.32-6.1,1.57-7.74,4.31a6.27,6.27,0,0,1-6.16,3.24C154.84,254.57,151.75,254.65,148.65,254.65Z"/><path d="M175.68,213.64c-.31-3.13-.76-6.25-.88-9.38a29,29,0,0,1,.58-5.71,12.74,12.74,0,0,0-3.88-11.78c-2.1-2.08-4.34-4-6.43-6.11-3-3-4.2-6.59-3.48-11.37.63,1.83,1,3.18,1.56,4.45a16.89,16.89,0,0,0,7,7.63,37.19,37.19,0,0,1,11.54,10.3c4.15,5.94,3.83,12.53-1,18-1.26,1.43-2.6,2.79-3.9,4.18Z"/><path d="M198.11,170.36A9.92,9.92,0,0,1,196,179.3c-1.53,1.83-3.41,3.36-5,5.12-2.24,2.43-4.39,5-6.63,7.5,0,0-.37-.45-.65-.88-2.4-3.69-2.4-3.69,1.16-6.32a22,22,0,0,1,2.56-1.77C192.35,180.25,196.35,176.67,198.11,170.36Z"/><path d="M189,169.89c5.5-2.72,7.42-5.13,7.75-9.61-4.62.51-7.46,3.11-9.23,7.43-.48-5.9,5.35-10.61,11.9-9.94C199.88,164.61,195.93,169.45,189,169.89Z"/><path d="M180,153.16c-3,3.84-3.29,7.72-1.26,12.1-4.54-3.94-4-10.26,1.07-15.71a10.4,10.4,0,0,1,1.11,16.16C183.31,161.06,182.9,157.1,180,153.16Z"/><path d="M170.39,169.63c-4.86.54-10.41-4.15-10-11.81a9.91,9.91,0,0,1,11.91,9.52c-1.72-4-4.59-6.53-8.94-7.15C162.74,163.75,165.12,167,170.39,169.63Z"/><path d="M183.65,179.16c-.06,2.44-1.82,4.46-3.82,4.39s-3.61-2.23-3.56-4.66,1.74-4.4,3.85-4.33S183.71,176.59,183.65,179.16Z"/><path d="M184.88,208.85c-1.39,4.8-2.79,9.6-4.35,15-3-4.5-1.64-9.23,3.73-15.13Z"/><path d="M247.63,166.08c0-2.68,6.57-12.17,9-13.05a6.21,6.21,0,0,1,6.67,2.07,6,6,0,0,1,.06,6.32c-1.72,2.58-3.46,5.16-5.3,7.65a5.52,5.52,0,0,1-6.3,2.28A5.84,5.84,0,0,1,247.63,166.08Zm11.42-1.7c.91-1.26,1.7-2.35,2.48-3.45a5.81,5.81,0,0,0,.6-1,4,4,0,0,0-1.48-4.83c-1.68-.87-3.46-.93-4.78.64a52.49,52.49,0,0,0-3,4.34Z"/><path d="M236.15,218.52c-1.06-.59-2.76-1-3.21-1.92-1-2.16-2-4.64-1.88-6.93.11-2,1.9-3.61,4.38-4,3-.47,5.89-1.28,8.82-2,1.91-.45,3.07.21,3.5,2.15a63.32,63.32,0,0,1,1.43,6.75c.09.91-.59,2.58-1.28,2.8C244.14,216.6,240.26,217.47,236.15,218.52Zm1.28-2.26,8.47-1.9c-.72-2.79-1.35-5.26-2-7.79l-8.18,2.11C236.29,211.24,236.83,213.6,237.43,216.26Z"/><path d="M268.71,179.28l-2.29-.91,1.72,2.53c-3.5,3.73-7,7.42-10.51,11.19l-2.13-1.62L247,198.28l-.46-.33,7.17-9.14-1.66-2,10.49-11.19,2.33,1.39c-.29-.94-.47-1.54-.66-2.13l.49-.41,4.49,4.19ZM257.9,190.84a7,7,0,0,0,0-2.05,8,8,0,0,0-1.31-1.64c1.58-.42,3.23,2.46,4-.28l-1.5-1.89.42-.39,2.16,1.2.68-.23c-.22-1.09-.45-2.19-.74-3.65l2.37,1.58,2.62-2.83-3.82-3.6-9.11,9.75C255.05,188.12,256.24,189.26,257.9,190.84Z"/><path d="M229.36,177.65a4.64,4.64,0,0,1,2-5.7c1.95-1.39,3.9-.95,6,.74Z"/><path d="M230.34,179.23l7.85-4.82a4.22,4.22,0,0,1-1.36,5.2C234.89,181.16,232.71,181.17,230.34,179.23Z"/><path d="M233.5,186.42c1.54,2.08,1.76,4.11.72,6.06s-3.12,2.49-5.68,2Z"/><path d="M228.7,182.54c-.92,2.57-2.59,3.54-4.71,3.39-2.39-.16-3.7-1.79-4.58-4.31Z"/><path d="M226.84,193.54c-1.64-2.28-1.78-4.25-.62-6.18s3.13-2.1,5.56-1.72C230.11,188.3,228.58,190.75,226.84,193.54Z"/><path d="M219.76,179.81c1-2.31,2.41-3.44,4.53-3.37,2.37.08,4.06,1.17,4.67,4Z"/><path d="M227.22,213.32c.62.94,1.33,1.55,1.23,2a2.21,2.21,0,0,1-1.39,1.42c-.34.08-1.33-.85-1.29-1.26C225.82,214.85,226.52,214.29,227.22,213.32Z"/><path d="M230.43,215.07c.62.8,1.41,1.42,1.31,1.78-.18.59-.92,1-1.43,1.52-.45-.54-1.14-1-1.27-1.64C229,216.37,229.77,215.82,230.43,215.07Z"/><path d="M225.73,218.14c.69,1.08,1.31,1.64,1.34,2.22,0,.4-.78,1.16-1.22,1.18s-1.34-.68-1.34-1.06C224.51,219.88,225.09,219.28,225.73,218.14Z"/><path d="M256.09,261.63c.91,0,2-.25,2.67.17,3.28,2.14,5.05,5.38,6.32,9.19l-6.78,2.75,6.45,3.44.17-.12-4.43-3.55,5.77-2.25-3.84-7.49a19.18,19.18,0,0,1,11.64,5.06,3.24,3.24,0,0,1,.44,2.68c-1.2,4.62-2.47,9.23-4,13.76a4.33,4.33,0,0,1-2.52,2.35c-4.35,1.35-8.79,2.43-13.19,3.62a5,5,0,0,0-1.31.4c-2.86,1.77-5.57,1.45-8.53,0-1.63-.79-3.7-.61-5.55-1-9.84-2.05-11.34-3.44-13.92-13.1a47.25,47.25,0,0,1-1.28-6.79,3.3,3.3,0,0,1,.95-2.47,19.15,19.15,0,0,1,10.39-4.45c.32,0,.69.25,1,.38-1.43,2.26-2.86,4.51-4.42,6.95l6,2.34-4.72,3.78.14.15,6.74-3.73c-1.3-.51-2.39-.93-3.47-1.37l-3.44-1.46,3.32-6.55,4.14-3.24,7,4.22-4.41,4.88c-.55-2.67-1.06-5.16-1.55-7.53-1.72,4.92,2.23,21.26,6.22,29-1.11-4.29-2.3-8.56-3.28-12.88a6.62,6.62,0,0,1,.25-3.61c1.26-3.33,1.35-3.3.27-6.64.43-.38.89-.81,1.38-1.19,2.18-1.75,4.72-1.43,6.16.87.25.4-.09,1.15-.07,1.73,0,1.36-.23,2.87.29,4a7.23,7.23,0,0,1,.55,5.45c-1.07,3.57-1.88,7.21-2.8,10.82l.71.2c1.37-4.58,3-9.11,4-13.78A97.13,97.13,0,0,0,257,264.11c.07-.8-.6-1.65-.93-2.48Z"/><path d="M259.08,247.24l8,1.5c-3.71,5.11-9.08,6.12-14.57,6.52-7.71.57-15.35.51-20.66-6.43l.12-.93c3.14.22,6.28.4,9.41.69,2.29.21,4.55.7,6.84.83,2.73.14,5.47,0,8.2,0l0,.73-1.39.55,0,.27,2.38-.14.07.35L253,252.54l.05.34,4-.45.07.51-9.93,1.55c7.6.6,15.15-1.41,18.43-5.44l-5.27-.32c-.94,0-1.9-.09-1.31-1.49Z"/><path d="M250.12,237.78c1.46-.59,2.36-1.26,3.24-1.24,2,0,3.22,2.42,3.55,6.49a23,23,0,0,1-15.11.34c-.28-1.88-.67-3.68,1.16-5.18C245.66,236,248.26,236.1,250.12,237.78Z"/><path d="M259.08,247.24c-5.54,2.25-14.41,2.25-18.59.12.37-1,.73-2,1-2.72,3.85.12,7.87.28,11.88.36.77,0,1.55-.35,2.33-.37a3,3,0,0,1,1.8.46c.22.17-.11,1-.21,1.73l1.81.42Z"/><path d="M256.09,261.63c.87,3-.24,5.72-1,8.56l-4.23-4.81,5.22-3.75Z"/><path d="M148.65,254.65c3.1,0,6.19-.08,9.28,0a6.27,6.27,0,0,0,6.16-3.24c1.64-2.74,3.34-5.63,7.74-4.31l-.05-.77-2.88-4.55c1.25-1.23,2.47-1.45,3.79-.27a1.54,1.54,0,0,0,2.61-.23c.37-.45,1.41-1,1.69-.77,1.65,1.13,2.88.35,4.52-.18s3.92.21,6.16.43c-1.52,2.37-2.82,4.32-4.06,6.32-.86,1.4-.62,2.25,1.17,2.71,3.18.81,3.45,1.43,2.7,4.46a2.5,2.5,0,0,0,.07,1.58c.75,1.51.29,2.64-.64,3.94a19.05,19.05,0,0,0-2.53,4.91c-.2.58.57,1.63,1.1,2.32,2.37,3.07,5,6,7.16,9.18a11.12,11.12,0,0,1,1.66,4.95c.52,4.91-.14,7.2-5.56,9.93s-11.29,2.7-16.91,1.6c-8.24-1.62-11.57-10.9-7.13-18.46.39-.68.86-1.31,1.32-2-2.31-.59-2.31-.59-2.91,2.27-2.23-.06-3,1.14-2.37,3.6l-6.59.51a36.76,36.76,0,0,0-5.91-23.1Zm14.2,14.83c6.11.94,9.48-1.92,9.55-7.25,0-2.06-.32-4.21.17-6.15a9.28,9.28,0,0,1,2.83-3.91c.22-.21,1.68,1,2.62,1.39a32.91,32.91,0,0,0,3.13,1c-1.67-5.35-2.7-6.14-7.36-6.14-.8,0-1.61-.07-2.4,0-1.23.14-3-.06-3.57.65-1.89,2.3-4.24,4.77-4.76,7.5C162.27,260.75,162.85,265.16,162.85,269.48Zm15.69,5.34a13.1,13.1,0,0,0-1.91,1.27c-.85.84-2.15,1.75-2.21,2.69a3.76,3.76,0,0,0,1.86,2.88c1.46.75,1.55,1.52,1.07,2.8h-2.41c-1.12,3.27,3.11,1.18,2.91,3.31a11.62,11.62,0,0,0,2-1.34c.88-.91,2.22-1.92,2.26-2.94a4.26,4.26,0,0,0-2-3c-1.27-.74-1.59-1.32-1-2.55l2.09.2C182.4,275.09,178.52,276.67,178.54,274.82Zm2.76-19.2c-1.79.24-4,.43-6.2.88-.53.12-.9,1.06-1.34,1.63.6.41,1.22,1.18,1.81,1.16,3.11-.09,6.23-.32,9.32-.67.61-.07,1.13-.87,1.69-1.33-.57-.56-1.06-1.4-1.74-1.6A14.28,14.28,0,0,0,181.3,255.62Zm-2,4.82v.19a36.42,36.42,0,0,0-4.06.26,1.78,1.78,0,0,0-1,1.26c-.06.28.64,1,1,1,2.71,0,5.42-.11,8.12-.33.42,0,.77-.85,1.16-1.3-.45-.37-.87-1-1.36-1.07A30.41,30.41,0,0,0,179.35,260.44Zm-18.73,11.83h.79c1.21-2,.58-14.57-.79-15.84Zm17.53-5v0c1.12-.07,2.24-.08,3.34-.26.36-.06.92-.63.88-.89-.06-.44-.52-1.17-.83-1.18a60,60,0,0,0-6.43.17c-.39,0-.72.88-1.07,1.35.49.31,1,.82,1.48.89A14.55,14.55,0,0,0,178.15,267.27Zm3.8-15.73c.21.54.26,1.11.5,1.21a20.71,20.71,0,0,0,3.39,1c.13,0,.44-.81.67-1.24a24.71,24.71,0,0,0-2.81-1.2A4.94,4.94,0,0,0,182,251.54Z"/><path class="cls-1" d="M259.05,164.38l-6.19-4.32a52.49,52.49,0,0,1,3-4.34c1.32-1.57,3.1-1.51,4.78-.64a4,4,0,0,1,1.48,4.83,5.81,5.81,0,0,1-.6,1C260.75,162,260,163.12,259.05,164.38Z"/><path class="cls-1" d="M237.43,216.26c-.6-2.66-1.14-5-1.71-7.58l8.18-2.11c.65,2.53,1.28,5,2,7.79Z"/><path class="cls-1" d="M257.9,190.84c-1.66-1.58-2.85-2.72-4.24-4l9.11-9.75,3.82,3.6L264,183.49l-2.37-1.58c.29,1.46.52,2.56.74,3.65l-.68.23-2.16-1.2-.42.39,1.5,1.89c-.8,2.74-2.45-.14-4,.28a8,8,0,0,1,1.31,1.64A7,7,0,0,1,257.9,190.84Z"/><path class="cls-1" d="M236.74,264.34l-3.32,6.55,3.44,1.46c1.08.44,2.17.86,3.47,1.37l-6.74,3.73-.14-.15,4.72-3.78-6-2.34c1.56-2.44,3-4.69,4.42-6.95Z"/><path class="cls-1" d="M162.85,269.48c0-4.32-.58-8.73.21-12.87.52-2.73,2.87-5.2,4.76-7.5.59-.71,2.34-.51,3.57-.65.79-.08,1.6,0,2.4,0,4.66,0,5.69.79,7.36,6.14a32.91,32.91,0,0,1-3.13-1c-.94-.41-2.4-1.6-2.62-1.39a9.28,9.28,0,0,0-2.83,3.91c-.49,1.94-.15,4.09-.17,6.15C172.33,267.56,169,270.42,162.85,269.48Z"/><path class="cls-1" d="M178.54,274.82c0,1.85,3.86.27,2.65,3.3l-2.09-.2c-.64,1.23-.32,1.81,1,2.55a4.26,4.26,0,0,1,2,3c0,1-1.38,2-2.26,2.94a11.62,11.62,0,0,1-2,1.34c.2-2.13-4,0-2.91-3.31h2.41c.48-1.28.39-2-1.07-2.8a3.76,3.76,0,0,1-1.86-2.88c.06-.94,1.36-1.85,2.21-2.69A13.1,13.1,0,0,1,178.54,274.82Z"/><path class="cls-1" d="M181.3,255.62a14.28,14.28,0,0,1,3.54.07c.68.2,1.17,1,1.74,1.6-.56.46-1.08,1.26-1.69,1.33-3.09.35-6.21.58-9.32.67-.59,0-1.21-.75-1.81-1.16.44-.57.81-1.51,1.34-1.63C177.28,256.05,179.51,255.86,181.3,255.62Z"/><path class="cls-1" d="M179.35,260.44a30.41,30.41,0,0,1,3.82.05c.49.06.91.7,1.36,1.07-.39.45-.74,1.27-1.16,1.3-2.7.22-5.41.31-8.12.33-.36,0-1.06-.76-1-1a1.78,1.78,0,0,1,1-1.26,36.42,36.42,0,0,1,4.06-.26Z"/><path class="cls-1" d="M160.62,272.27V256.43c1.37,1.27,2,13.86.79,15.84Z"/><path class="cls-1" d="M178.15,267.27a14.55,14.55,0,0,1-2.63.11c-.52-.07-1-.58-1.48-.89.35-.47.68-1.31,1.07-1.35a60,60,0,0,1,6.43-.17c.31,0,.77.74.83,1.18,0,.26-.52.83-.88.89-1.1.18-2.22.19-3.34.26Z"/><path class="cls-1" d="M182,251.54a4.94,4.94,0,0,1,1.75-.21,24.71,24.71,0,0,1,2.81,1.2c-.23.43-.54,1.26-.67,1.24a20.71,20.71,0,0,1-3.39-1C182.21,252.65,182.16,252.08,182,251.54Z"/></g></g></svg>